Perun-BoldItalic.ufo
<glyph name="quotedbl" format="2">
  <advance width="519"/>
  <unicode hex="0022"/>
  <outline>
    <contour>
      <point x="617" y="723" type="line"/>
      <point x="467" y="723" type="line"/>
      <point x="426" y="432" type="line"/>
      <point x="524" y="432" type="line"/>
    </contour>
    <contour>
      <point x="387" y="722" type="line"/>
      <point x="237" y="722" type="line"/>
      <point x="196" y="431" type="line"/>
      <point x="294" y="431" type="line"/>
    </contour>
  </outline>
</glyph>
<glyph name="numbersign" format="2">
  <advance width="716"/>
  <unicode hex="0023"/>
  <outline>
    <contour>
      <point x="796" y="539" type="line"/>
      <point x="693" y="539" type="line"/>
      <point x="790" y="722" type="line"/>
      <point x="690" y="722" type="line"/>
      <point x="593" y="539" type="line"/>
      <point x="471" y="539" type="line"/>
      <point x="568" y="722" type="line"/>
      <point x="468" y="722" type="line"/>
      <point x="371" y="539" type="line"/>
      <point x="271" y="539" type="line"/>
      <point x="226" y="459" type="line"/>
      <point x="330" y="459" type="line"/>
      <point x="238" y="284" type="line"/>
      <point x="138" y="284" type="line"/>
      <point x="92" y="204" type="line"/>
      <point x="195" y="204" type="line"/>
      <point x="88" y="0" type="line"/>
      <point x="188" y="0" type="line"/>
      <point x="295" y="204" type="line"/>
      <point x="418" y="204" type="line"/>
      <point x="310" y="-1" type="line"/>
      <point x="410" y="0" type="line"/>
      <point x="517" y="204" type="line"/>
      <point x="617" y="204" type="line"/>
      <point x="663" y="284" type="line"/>
      <point x="560" y="284" type="line"/>
      <point x="651" y="459" type="line"/>
      <point x="751" y="459" type="line"/>
    </contour>
    <contour>
      <point x="552" y="459" type="line"/>
      <point x="461" y="284" type="line"/>
      <point x="338" y="284" type="line"/>
      <point x="429" y="459" type="line"/>
    </contour>
  </outline>
</glyph>
<glyph name="dollar" format="2">
  <advance width="573"/>
  <unicode hex="0024"/>
  <outline>
    <contour>
      <point x="82" y="231" type="line"/>
      <point x="76" y="207"/>
      <point x="74" y="186"/>
      <point x="74" y="165" type="curve" smooth="yes"/>
      <point x="74" y="46"/>
      <point x="175" y="-9"/>
      <point x="283" y="-9" type="curve" smooth="yes"/>
      <point x="436" y="-9"/>
      <point x="601" y="106"/>
      <point x="601" y="270" type="curve" smooth="yes"/>
      <point x="601" y="375"/>
      <point x="486" y="393"/>
      <point x="412" y="425" type="curve" smooth="yes"/>
      <point x="364" y="446" type="line" smooth="yes"/>
      <point x="321" y="465"/>
      <point x="299" y="490"/>
      <point x="299" y="519" type="curve" smooth="yes"/>
      <point x="299" y="585"/>
      <point x="376" y="627"/>
      <point x="433" y="627" type="curve" smooth="yes"/>
      <point x="481" y="627"/>
      <point x="517" y="612"/>
      <point x="517" y="555" type="curve" smooth="yes"/>
      <point x="517" y="545"/>
      <point x="516" y="534"/>
      <point x="513" y="523" type="curve"/>
      <point x="648" y="523" type="line"/>
      <point x="653" y="544"/>
      <point x="655" y="564"/>
      <point x="655" y="583" type="curve" smooth="yes"/>
      <point x="655" y="694"/>
      <point x="568" y="741"/>
      <point x="467" y="741" type="curve" smooth="yes"/>
      <point x="314" y="741"/>
      <point x="159" y="621"/>
      <point x="159" y="460" type="curve" smooth="yes"/>
      <point x="159" y="365"/>
      <point x="259" y="336"/>
      <point x="333" y="313" type="curve" smooth="yes"/>
      <point x="382" y="298" type="line" smooth="yes"/>
      <point x="422" y="286"/>
      <point x="461" y="260"/>
      <point x="461" y="217" type="curve" smooth="yes"/>
      <point x="461" y="135"/>
      <point x="367" y="104"/>
      <point x="299" y="104" type="curve" smooth="yes"/>
      <point x="246" y="104"/>
      <point x="211" y="127"/>
      <point x="211" y="184" type="curve" smooth="yes"/>
      <point x="211" y="198"/>
      <point x="213" y="213"/>
      <point x="217" y="231" type="curve"/>
    </contour>
    <contour>
      <point x="238" y="-99" type="line"/>
      <point x="290" y="-99" type="line"/>
      <point x="498" y="799" type="line"/>
      <point x="446" y="799" type="line"/>
    </contour>
  </outline>
</glyph>
<glyph name="percent" format="2">
  <advance width="1000"/>
  <unicode hex="0025"/>
  <outline>
    <contour>
      <point x="238" y="-14" type="line"/>
      <point x="337" y="-14" type="line"/>
      <point x="935" y="736" type="line"/>
      <point x="836" y="736" type="line"/>
    </contour>
    <contour>
      <point x="153" y="474" type="curve" smooth="yes"/>
      <point x="153" y="376"/>
      <point x="216" y="322"/>
      <point x="309" y="322" type="curve" smooth="yes"/>
      <point x="448" y="322"/>
      <point x="563" y="442"/>
      <point x="563" y="574" type="curve" smooth="yes"/>
      <point x="563" y="672"/>
      <point x="500" y="729"/>
      <point x="405" y="729" type="curve" smooth="yes"/>
      <point x="268" y="729"/>
      <point x="153" y="608"/>
    </contour>
    <contour>
      <point x="325" y="388" type="curve" smooth="yes"/>
      <point x="276" y="388"/>
      <point x="256" y="420"/>
      <point x="256" y="471" type="curve" smooth="yes"/>
      <point x="256" y="545"/>
      <point x="299" y="662"/>
      <point x="389" y="662" type="curve" smooth="yes"/>
      <point x="438" y="662"/>
      <point x="457" y="628"/>
      <point x="457" y="577" type="curve" smooth="yes"/>
      <point x="457" y="503"/>
      <point x="416" y="388"/>
    </contour>
    <contour>
      <point x="601" y="146" type="curve" smooth="yes"/>
      <point x="601" y="48"/>
      <point x="664" y="-6"/>
      <point x="757" y="-6" type="curve" smooth="yes"/>
      <point x="896" y="-6"/>
      <point x="1011" y="114"/>
      <point x="1011" y="246" type="curve" smooth="yes"/>
      <point x="1011" y="344"/>
      <point x="948" y="401"/>
      <point x="853" y="401" type="curve" smooth="yes"/>
      <point x="716" y="401"/>
      <point x="601" y="280"/>
    </contour>
    <contour>
      <point x="773" y="60" type="curve" smooth="yes"/>
      <point x="724" y="60"/>
      <point x="704" y="92"/>
      <point x="704" y="143" type="curve" smooth="yes"/>
      <point x="704" y="217"/>
      <point x="747" y="334"/>
      <point x="837" y="334" type="curve" smooth="yes"/>
      <point x="886" y="334"/>
      <point x="905" y="300"/>
      <point x="905" y="249" type="curve" smooth="yes"/>
      <point x="905" y="175"/>
      <point x="864" y="60"/>
    </contour>
  </outline>
  <guideline angle="0" x="0" y="543"/>
</glyph>
<glyph name="hyphen" format="2">
  <advance width="336"/>
  <unicode hex="002D"/>
  <outline>
    <contour>
      <point x="341" y="190" type="line"/>
      <point x="371" y="321" type="line"/>
      <point x="114" y="321" type="line"/>
      <point x="84" y="190" type="line"/>
    </contour>
  </outline>
</glyph>
<glyph name="period" format="2">
  <advance width="293"/>
  <unicode hex="002E"/>
  <outline>
    <contour>
      <point x="224" y="0" type="line"/>
      <point x="254" y="132" type="line"/>
      <point x="128" y="132" type="line"/>
      <point x="98" y="0" type="line"/>
    </contour>
  </outline>
</glyph>
<glyph name="one" format="2">
  <advance width="573"/>
  <unicode hex="0031"/>
  <outline>
    <contour>
      <point x="406" y="0" type="line"/>
      <point x="573" y="722" type="line"/>
      <point x="448" y="722" type="line"/>
      <point x="387" y="674"/>
      <point x="315" y="636"/>
      <point x="241" y="610" type="curve"/>
      <point x="212" y="487" type="line"/>
      <point x="280" y="508"/>
      <point x="346" y="538"/>
      <point x="405" y="579" type="curve"/>
      <point x="271" y="0" type="line"/>
    </contour>
  </outline>
</glyph>
<glyph name="two" format="2">
  <advance width="573"/>
  <unicode hex="0032"/>
  <outline>
    <contour>
      <point x="31" y="0" type="line"/>
      <point x="541" y="0" type="line"/>
      <point x="567" y="115" type="line"/>
      <point x="212" y="115" type="line"/>
      <point x="420" y="248" type="line" smooth="yes"/>
      <point x="529" y="318"/>
      <point x="668" y="437"/>
      <point x="668" y="576" type="curve" smooth="yes"/>
      <point x="668" y="679"/>
      <point x="591" y="736"/>
      <point x="480" y="736" type="curve" smooth="yes"/>
      <point x="348" y="736"/>
      <point x="209" y="656"/>
      <point x="179" y="523" type="curve"/>
      <point x="324" y="523" type="line"/>
      <point x="339" y="586"/>
      <point x="394" y="626"/>
      <point x="447" y="626" type="curve" smooth="yes"/>
      <point x="494" y="626"/>
      <point x="526" y="595"/>
      <point x="526" y="552" type="curve" smooth="yes"/>
      <point x="526" y="475"/>
      <point x="425" y="387"/>
      <point x="365" y="344" type="curve" smooth="yes"/>
      <point x="61" y="129" type="line"/>
    </contour>
  </outline>
</glyph>
<glyph name="four" format="2">
  <advance width="573"/>
  <unicode hex="0034"/>
  <outline>
    <contour>
      <point x="588" y="158" type="line"/>
      <point x="615" y="273" type="line"/>
      <point x="525" y="273" type="line"/>
      <point x="629" y="722" type="line"/>
      <point x="454" y="722" type="line"/>
      <point x="88" y="288" type="line"/>
      <point x="58" y="158" type="line"/>
      <point x="363" y="158" type="line"/>
      <point x="327" y="0" type="line"/>
      <point x="462" y="0" type="line"/>
      <point x="498" y="158" type="line"/>
    </contour>
    <contour>
      <point x="390" y="273" type="line"/>
      <point x="208" y="273" type="line"/>
      <point x="463" y="590" type="line"/>
    </contour>
  </outline>
</glyph>
<glyph name="colon" format="2">
  <advance width="310"/>
  <unicode hex="003A"/>
  <outline>
    <contour>
      <point x="348" y="368" type="line"/>
      <point x="378" y="500" type="line"/>
      <point x="252" y="500" type="line"/>
      <point x="222" y="368" type="line"/>
    </contour>
    <contour>
      <point x="263" y="0" type="line"/>
      <point x="293" y="132" type="line"/>
      <point x="167" y="132" type="line"/>
      <point x="137" y="0" type="line"/>
    </contour>
  </outline>
</glyph>
<glyph name="less" format="2">
  <advance width="1000"/>
  <unicode hex="003C"/>
  <outline>
    <contour>
      <point x="809" y="39" type="line"/>
      <point x="823" y="101" type="line"/>
      <point x="333" y="300" type="line"/>
      <point x="915" y="499" type="line"/>
      <point x="930" y="561" type="line"/>
      <point x="276" y="331" type="line"/>
      <point x="262" y="269" type="line"/>
    </contour>
  </outline>
</glyph>
<glyph name="at" format="2">
  <advance width="1039"/>
  <unicode hex="0040"/>
  <outline>
    <contour>
      <point x="87" y="150" type="curve" smooth="yes"/>
      <point x="87" y="-104"/>
      <point x="280" y="-213"/>
      <point x="502" y="-213" type="curve" smooth="yes"/>
      <point x="554" y="-213"/>
      <point x="624" y="-207"/>
      <point x="719" y="-196" type="curve"/>
      <point x="749" y="-63" type="line"/>
      <point x="665" y="-91"/>
      <point x="578" y="-94"/>
      <point x="490" y="-94" type="curve" smooth="yes"/>
      <point x="342" y="-94"/>
      <point x="229" y="15"/>
      <point x="229" y="175" type="curve" smooth="yes"/>
      <point x="229" y="397"/>
      <point x="448" y="621"/>
      <point x="682" y="621" type="curve" smooth="yes"/>
      <point x="838" y="621"/>
      <point x="942" y="542"/>
      <point x="942" y="379" type="curve" smooth="yes"/>
      <point x="942" y="319"/>
      <point x="901" y="108"/>
      <point x="821" y="108" type="curve" smooth="yes"/>
      <point x="803" y="108"/>
      <point x="797" y="119"/>
      <point x="797" y="151" type="curve"/>
      <point x="869" y="491" type="line"/>
      <point x="732" y="491" type="line"/>
      <point x="721" y="442" type="line"/>
      <point x="696" y="484"/>
      <point x="652" y="507"/>
      <point x="595" y="507" type="curve" smooth="yes"/>
      <point x="442" y="507"/>
      <point x="326" y="338"/>
      <point x="326" y="194" type="curve" smooth="yes"/>
      <point x="326" y="87"/>
      <point x="389" y="10"/>
      <point x="485" y="10" type="curve" smooth="yes"/>
      <point x="552" y="10"/>
      <point x="620" y="47"/>
      <point x="660" y="87" type="curve"/>
      <point x="678" y="27"/>
      <point x="723" y="6"/>
      <point x="780" y="6" type="curve" smooth="yes"/>
      <point x="972" y="6"/>
      <point x="1084" y="245"/>
      <point x="1084" y="416" type="curve" smooth="yes"/>
      <point x="1084" y="626"/>
      <point x="916" y="736"/>
      <point x="712" y="736" type="curve" smooth="yes"/>
      <point x="395" y="736"/>
      <point x="87" y="470"/>
    </contour>
    <contour>
      <point x="468" y="204" type="curve" smooth="yes"/>
      <point x="468" y="283"/>
      <point x="522" y="401"/>
      <point x="615" y="401" type="curve" smooth="yes"/>
      <point x="666" y="401"/>
      <point x="683" y="366"/>
      <point x="683" y="320" type="curve" smooth="yes"/>
      <point x="683" y="239"/>
      <point x="629" y="116"/>
      <point x="538" y="116" type="curve" smooth="yes"/>
      <point x="487" y="116"/>
      <point x="468" y="156"/>
    </contour>
  </outline>
</glyph>
<glyph name="I" format="2">
  <advance width="289"/>
  <unicode hex="0049"/>
  <anchor x="133" y="-60" name="bottom"/>
  <anchor x="147" y="10" name="bottomUC"/>
  <anchor x="327" y="800" name="top"/>
  <outline>
    <contour>
      <point x="220" y="0" type="line"/>
      <point x="387" y="722" type="line"/>
      <point x="237" y="722" type="line"/>
      <point x="70" y="0" type="line"/>
    </contour>
  </outline>
</glyph>
<glyph name="J" format="2">
  <advance width="626"/>
  <unicode hex="004A"/>
  <anchor x="649" y="800" name="top"/>
  <outline>
    <contour>
      <point x="107" y="227" type="line"/>
      <point x="98" y="190"/>
      <point x="94" y="158"/>
      <point x="94" y="131" type="curve" smooth="yes"/>
      <point x="94" y="27"/>
      <point x="157" y="-14"/>
      <point x="298" y="-14" type="curve" smooth="yes"/>
      <point x="435" y="-14"/>
      <point x="575" y="74"/>
      <point x="606" y="213" type="curve"/>
      <point x="724" y="723" type="line"/>
      <point x="574" y="723" type="line"/>
      <point x="458" y="222" type="line" smooth="yes"/>
      <point x="438" y="137"/>
      <point x="403" y="100"/>
      <point x="320" y="100" type="curve" smooth="yes"/>
      <point x="273" y="100"/>
      <point x="250" y="125"/>
      <point x="250" y="174" type="curve" smooth="yes"/>
      <point x="250" y="189"/>
      <point x="252" y="207"/>
      <point x="257" y="227" type="curve"/>
    </contour>
  </outline>
</glyph>
<glyph name="M" format="2">
  <advance width="917"/>
  <unicode hex="004D"/>
  <anchor x="623" y="800" name="top"/>
  <outline>
    <contour>
      <point x="854" y="0" type="line"/>
      <point x="1022" y="726" type="line"/>
      <point x="782" y="726" type="line"/>
      <point x="505" y="200" type="line"/>
      <point x="471" y="722" type="line"/>
      <point x="231" y="722" type="line"/>
      <point x="64" y="0" type="line"/>
      <point x="204" y="0" type="line"/>
      <point x="343" y="600" type="line"/>
      <point x="387" y="0" type="line"/>
      <point x="531" y="0" type="line"/>
      <point x="853" y="600" type="line"/>
      <point x="714" y="0" type="line"/>
    </contour>
  </outline>
</glyph>
<glyph name="P" format="2">
  <advance width="650"/>
  <unicode hex="0050"/>
  <anchor x="439" y="800" name="top"/>
  <outline>
    <contour>
      <point x="713" y="553" type="curve" smooth="yes"/>
      <point x="713" y="682"/>
      <point x="590" y="721"/>
      <point x="482" y="721" type="curve" smooth="yes"/>
      <point x="230" y="721" type="line"/>
      <point x="64" y="-1" type="line"/>
      <point x="209" y="-1" type="line"/>
      <point x="272" y="273" type="line"/>
      <point x="379" y="273" type="line" smooth="yes"/>
      <point x="546" y="273"/>
      <point x="713" y="370"/>
    </contour>
    <contour>
      <point x="369" y="388" type="curve" smooth="yes"/>
      <point x="299" y="388" type="line"/>
      <point x="349" y="606" type="line"/>
      <point x="419" y="606" type="line" smooth="yes"/>
      <point x="500" y="606"/>
      <point x="559" y="593"/>
      <point x="559" y="528" type="curve" smooth="yes"/>
      <point x="559" y="409"/>
      <point x="468" y="388"/>
    </contour>
  </outline>
</glyph>
<glyph name="Q" format="2">
  <advance width="834"/>
  <unicode hex="0051"/>
  <anchor x="562" y="800" name="top"/>
  <outline>
    <contour>
      <point x="125" y="244" type="curve" smooth="yes"/>
      <point x="125" y="82"/>
      <point x="225" y="-14"/>
      <point x="402" y="-14" type="curve" smooth="yes"/>
      <point x="448" y="-14"/>
      <point x="485" y="-11"/>
      <point x="531" y="-7" type="curve" smooth="yes"/>
      <point x="566" y="-4"/>
      <point x="617" y="0"/>
      <point x="667" y="0" type="curve" smooth="yes"/>
      <point x="800" y="0" type="line"/>
      <point x="827" y="118" type="line"/>
      <point x="766" y="115"/>
      <point x="707" y="107"/>
      <point x="652" y="92" type="curve"/>
      <point x="768" y="182"/>
      <point x="838" y="332"/>
      <point x="838" y="476" type="curve" smooth="yes"/>
      <point x="838" y="647"/>
      <point x="739" y="736"/>
      <point x="570" y="736" type="curve" smooth="yes"/>
      <point x="294" y="736"/>
      <point x="125" y="495"/>
    </contour>
    <contour>
      <point x="276" y="253" type="curve" smooth="yes"/>
      <point x="276" y="410"/>
      <point x="355" y="622"/>
      <point x="547" y="622" type="curve" smooth="yes"/>
      <point x="650" y="622"/>
      <point x="687" y="562"/>
      <point x="687" y="461" type="curve" smooth="yes"/>
      <point x="687" y="310"/>
      <point x="605" y="100"/>
      <point x="416" y="100" type="curve" smooth="yes"/>
      <point x="324" y="100"/>
      <point x="276" y="152"/>
    </contour>
  </outline>
</glyph>
<glyph name="R" format="2">
  <advance width="682"/>
  <unicode hex="0052"/>
  <anchor x="342" y="-60" name="bottom"/>
  <anchor x="463" y="800" name="top"/>
  <outline>
    <contour>
      <point x="71" y="0" type="line"/>
      <point x="221" y="0" type="line"/>
      <point x="289" y="295" type="line"/>
      <point x="419" y="295" type="line" smooth="yes"/>
      <point x="490" y="295"/>
      <point x="504" y="261"/>
      <point x="504" y="201" type="curve" smooth="yes"/>
      <point x="504" y="145"/>
      <point x="491" y="89"/>
      <point x="491" y="34" type="curve" smooth="yes"/>
      <point x="491" y="19"/>
      <point x="492" y="8"/>
      <point x="493" y="0" type="curve"/>
      <point x="645" y="0" type="line"/>
      <point x="643" y="20"/>
      <point x="641" y="43"/>
      <point x="641" y="66" type="curve" smooth="yes"/>
      <point x="641" y="127"/>
      <point x="654" y="186"/>
      <point x="654" y="241" type="curve" smooth="yes"/>
      <point x="654" y="319"/>
      <point x="628" y="344"/>
      <point x="557" y="359" type="curve"/>
      <point x="669" y="394"/>
      <point x="755" y="441"/>
      <point x="755" y="580" type="curve" smooth="yes"/>
      <point x="755" y="708"/>
      <point x="616" y="722"/>
      <point x="516" y="722" type="curve" smooth="yes"/>
      <point x="238" y="722" type="line"/>
    </contour>
    <contour>
      <point x="316" y="410" type="line"/>
      <point x="361" y="607" type="line"/>
      <point x="491" y="607" type="line" smooth="yes"/>
      <point x="547" y="607"/>
      <point x="597" y="581"/>
      <point x="597" y="528" type="curve" smooth="yes"/>
      <point x="597" y="453"/>
      <point x="498" y="410"/>
      <point x="435" y="410" type="curve" smooth="yes"/>
    </contour>
  </outline>
</glyph>
<glyph name="S" format="2">
  <advance width="682"/>
  <unicode hex="0053"/>
  <anchor x="498" y="800" name="top"/>
  <outline>
    <contour>
      <point x="108" y="228" type="line"/>
      <point x="103" y="207"/>
      <point x="101" y="187"/>
      <point x="101" y="170" type="curve" smooth="yes"/>
      <point x="101" y="36"/>
      <point x="241" y="-14"/>
      <point x="350" y="-14" type="curve" smooth="yes"/>
      <point x="564" y="-14"/>
      <point x="681" y="88"/>
      <point x="681" y="248" type="curve" smooth="yes"/>
      <point x="681" y="327"/>
      <point x="630" y="375"/>
      <point x="546" y="402" type="curve" smooth="yes"/>
      <point x="407" y="447" type="line" smooth="yes"/>
      <point x="370" y="459"/>
      <point x="349" y="474"/>
      <point x="349" y="514" type="curve" smooth="yes"/>
      <point x="349" y="580"/>
      <point x="408" y="622"/>
      <point x="477" y="622" type="curve" smooth="yes"/>
      <point x="530" y="622"/>
      <point x="583" y="601"/>
      <point x="583" y="556" type="curve" smooth="yes"/>
      <point x="583" y="547"/>
      <point x="581" y="532"/>
      <point x="578" y="521" type="curve"/>
      <point x="727" y="521" type="line"/>
      <point x="732" y="541"/>
      <point x="734" y="558"/>
      <point x="734" y="575" type="curve" smooth="yes"/>
      <point x="734" y="700"/>
      <point x="615" y="736"/>
      <point x="500" y="736" type="curve" smooth="yes"/>
      <point x="300" y="736"/>
      <point x="191" y="653"/>
      <point x="191" y="492" type="curve" smooth="yes"/>
      <point x="191" y="404"/>
      <point x="246" y="354"/>
      <point x="307" y="335" type="curve" smooth="yes"/>
      <point x="469" y="285" type="line" smooth="yes"/>
      <point x="499" y="275"/>
      <point x="530" y="252"/>
      <point x="530" y="209" type="curve" smooth="yes"/>
      <point x="530" y="150"/>
      <point x="470" y="100"/>
      <point x="389" y="100" type="curve" smooth="yes"/>
      <point x="312" y="100"/>
      <point x="252" y="121"/>
      <point x="252" y="184" type="curve" smooth="yes"/>
      <point x="252" y="196"/>
      <point x="254" y="211"/>
      <point x="258" y="228" type="curve"/>
    </contour>
  </outline>
</glyph>
<glyph name="T" format="2">
  <advance width="635"/>
  <unicode hex="0054"/>
  <anchor x="492" y="800" name="top"/>
  <outline>
    <contour>
      <point x="746" y="607" type="line"/>
      <point x="773" y="722" type="line"/>
      <point x="197" y="722" type="line"/>
      <point x="170" y="607" type="line"/>
      <point x="383" y="607" type="line"/>
      <point x="243" y="0" type="line"/>
      <point x="393" y="0" type="line"/>
      <point x="533" y="607" type="line"/>
    </contour>
  </outline>
</glyph>
<glyph name="U" format="2">
  <advance width="756"/>
  <unicode hex="0055"/>
  <anchor x="384" y="10" name="bottomUC"/>
  <anchor x="538" y="800" name="top"/>
  <outline>
    <contour>
      <point x="127" y="203" type="curve" smooth="yes"/>
      <point x="127" y="52"/>
      <point x="224" y="-14"/>
      <point x="368" y="-14" type="curve" smooth="yes"/>
      <point x="566" y="-14"/>
      <point x="706" y="106"/>
      <point x="751" y="299" type="curve" smooth="yes"/>
      <point x="849" y="722" type="line"/>
      <point x="704" y="722" type="line"/>
      <point x="606" y="299" type="line" smooth="yes"/>
      <point x="576" y="167"/>
      <point x="506" y="100"/>
      <point x="400" y="100" type="curve" smooth="yes"/>
      <point x="317" y="100"/>
      <point x="274" y="142"/>
      <point x="274" y="222" type="curve" smooth="yes"/>
      <point x="274" y="246"/>
      <point x="278" y="271"/>
      <point x="284" y="299" type="curve" smooth="yes"/>
      <point x="382" y="722" type="line"/>
      <point x="237" y="722" type="line"/>
      <point x="139" y="299" type="line" smooth="yes"/>
      <point x="131" y="265"/>
      <point x="127" y="233"/>
    </contour>
  </outline>
</glyph>
<glyph name="V" format="2">
  <advance width="737"/>
  <unicode hex="0056"/>
  <anchor x="536" y="800" name="top"/>
  <outline>
    <contour>
      <point x="895" y="722" type="line"/>
      <point x="735" y="722" type="line"/>
      <point x="408" y="167" type="line"/>
      <point x="337" y="722" type="line"/>
      <point x="177" y="722" type="line"/>
      <point x="275" y="0" type="line"/>
      <point x="453" y="0" type="line"/>
    </contour>
  </outline>
</glyph>
<glyph name="W" format="2">
  <advance width="1000"/>
  <unicode hex="0057"/>
  <anchor x="490" y="-60" name="bottom"/>
  <anchor x="677" y="800" name="top"/>
  <outline>
    <contour>
      <point x="1157" y="722" type="line"/>
      <point x="997" y="722" type="line"/>
      <point x="762" y="180" type="line"/>
      <point x="746" y="722" type="line"/>
      <point x="588" y="722" type="line"/>
      <point x="322" y="180" type="line"/>
      <point x="337" y="722" type="line"/>
      <point x="177" y="722" type="line"/>
      <point x="190" y="0" type="line"/>
      <point x="360" y="0" type="line"/>
      <point x="625" y="541" type="line"/>
      <point x="640" y="0" type="line"/>
      <point x="810" y="0" type="line"/>
    </contour>
  </outline>
</glyph>
<glyph name="Y" format="2">
  <advance width="653"/>
  <unicode hex="0059"/>
  <anchor x="504" y="800" name="top"/>
  <outline>
    <contour>
      <point x="811" y="722" type="line"/>
      <point x="645" y="722" type="line"/>
      <point x="424" y="419" type="line"/>
      <point x="343" y="722" type="line"/>
      <point x="177" y="722" type="line"/>
      <point x="315" y="273" type="line"/>
      <point x="252" y="0" type="line"/>
      <point x="402" y="0" type="line"/>
      <point x="465" y="273" type="line"/>
    </contour>
  </outline>
</glyph>
<glyph name="grave" format="2">
  <advance width="251"/>
  <unicode hex="0060"/>
  <outline>
    <contour>
      <point x="335" y="600" type="line"/>
      <point x="285" y="780" type="line"/>
      <point x="155" y="780" type="line"/>
      <point x="265" y="600" type="line"/>
    </contour>
  </outline>
</glyph>
<glyph name="a" format="2">
  <advance width="622"/>
  <unicode hex="0061"/>
  <anchor x="266" y="-60" name="bottom"/>
  <anchor x="424" y="580" name="top"/>
  <outline>
    <contour>
      <point x="99" y="177" type="curve" smooth="yes"/>
      <point x="99" y="68"/>
      <point x="153" y="-14"/>
      <point x="278" y="-14" type="curve" smooth="yes"/>
      <point x="342" y="-14"/>
      <point x="398" y="31"/>
      <point x="434" y="65" type="curve"/>
      <point x="419" y="0" type="line"/>
      <point x="554" y="0" type="line"/>
      <point x="669" y="500" type="line"/>
      <point x="534" y="500" type="line"/>
      <point x="524" y="454" type="line"/>
      <point x="507" y="487"/>
      <point x="470" y="514"/>
      <point x="400" y="514" type="curve" smooth="yes"/>
      <point x="219" y="514"/>
      <point x="99" y="339"/>
    </contour>
    <contour>
      <point x="234" y="178" type="curve" smooth="yes"/>
      <point x="234" y="278"/>
      <point x="298" y="428"/>
      <point x="404" y="428" type="curve" smooth="yes"/>
      <point x="467" y="428"/>
      <point x="487" y="375"/>
      <point x="487" y="322" type="curve" smooth="yes"/>
      <point x="487" y="230"/>
      <point x="428" y="72"/>
      <point x="316" y="72" type="curve" smooth="yes"/>
      <point x="251" y="72"/>
      <point x="234" y="126"/>
    </contour>
  </outline>
</glyph>
<glyph name="b" format="2">
  <advance width="622"/>
  <unicode hex="0062"/>
  <anchor x="339" y="-60" name="bottom"/>
  <anchor x="319" y="800" name="top"/>
  <outline>
    <contour>
      <point x="74" y="1" type="line"/>
      <point x="209" y="1" type="line"/>
      <point x="225" y="69" type="line"/>
      <point x="251" y="25"/>
      <point x="288" y="-14"/>
      <point x="344" y="-14" type="curve" smooth="yes"/>
      <point x="532" y="-14"/>
      <point x="644" y="165"/>
      <point x="644" y="329" type="curve" smooth="yes"/>
      <point x="644" y="442"/>
      <point x="591" y="514"/>
      <point x="475" y="514" type="curve" smooth="yes"/>
      <point x="408" y="514"/>
      <point x="365" y="500"/>
      <point x="314" y="455" type="curve"/>
      <point x="376" y="722" type="line"/>
      <point x="241" y="722" type="line"/>
    </contour>
    <contour>
      <point x="257" y="191" type="curve" smooth="yes"/>
      <point x="257" y="284"/>
      <point x="316" y="429"/>
      <point x="423" y="429" type="curve" smooth="yes"/>
      <point x="491" y="429"/>
      <point x="508" y="371"/>
      <point x="508" y="316" type="curve" smooth="yes"/>
      <point x="508" y="218"/>
      <point x="453" y="75"/>
      <point x="348" y="75" type="curve" smooth="yes"/>
      <point x="282" y="75"/>
      <point x="257" y="131"/>
    </contour>
  </outline>
</glyph>
<glyph name="c" format="2">
  <advance width="525"/>
  <unicode hex="0063"/>
  <anchor x="260" y="-60" name="bottom"/>
  <anchor x="272" y="10" name="cedillaC"/>
  <anchor x="399" y="580" name="top"/>
  <outline>
    <contour>
      <point x="95" y="147" type="curve" smooth="yes"/>
      <point x="95" y="41"/>
      <point x="153" y="-14"/>
      <point x="273" y="-14" type="curve" smooth="yes"/>
      <point x="406" y="-14"/>
      <point x="491" y="54"/>
      <point x="522" y="184" type="curve"/>
      <point x="386" y="184" type="line"/>
      <point x="370" y="114"/>
      <point x="349" y="72"/>
      <point x="286" y="72" type="curve" smooth="yes"/>
      <point x="234" y="72"/>
      <point x="219" y="100"/>
      <point x="219" y="148" type="curve" smooth="yes"/>
      <point x="219" y="227"/>
      <point x="261" y="428"/>
      <point x="373" y="428" type="curve" smooth="yes"/>
      <point x="414" y="428"/>
      <point x="427" y="402"/>
      <point x="427" y="367" type="curve" smooth="yes"/>
      <point x="427" y="353"/>
      <point x="425" y="339"/>
      <point x="421" y="324" type="curve"/>
      <point x="554" y="324" type="line"/>
      <point x="559" y="346"/>
      <point x="562" y="366"/>
      <point x="562" y="386" type="curve" smooth="yes"/>
      <point x="562" y="489"/>
      <point x="484" y="514"/>
      <point x="391" y="514" type="curve" smooth="yes"/>
      <point x="198" y="514"/>
      <point x="95" y="321"/>
    </contour>
  </outline>
</glyph>
<glyph name="e" format="2">
  <advance width="557"/>
  <unicode hex="0065"/>
  <anchor x="278" y="-60" name="bottom"/>
  <anchor x="409" y="580" name="top"/>
  <outline>
    <contour>
      <point x="95" y="154" type="curve" smooth="yes"/>
      <point x="95" y="49"/>
      <point x="151" y="-14"/>
      <point x="287" y="-14" type="curve" smooth="yes"/>
      <point x="415" y="-14"/>
      <point x="504" y="42"/>
      <point x="541" y="155" type="curve"/>
      <point x="405" y="155" type="line"/>
      <point x="388" y="107"/>
      <point x="352" y="72"/>
      <point x="298" y="72" type="curve" smooth="yes"/>
      <point x="245" y="72"/>
      <point x="230" y="105"/>
      <point x="230" y="144" type="curve" smooth="yes"/>
      <point x="230" y="168"/>
      <point x="236" y="198"/>
      <point x="241" y="222" type="curve"/>
      <point x="563" y="222" type="line"/>
      <point x="574" y="262"/>
      <point x="584" y="300"/>
      <point x="584" y="342" type="curve" smooth="yes"/>
      <point x="584" y="438"/>
      <point x="534" y="514"/>
      <point x="408" y="514" type="curve" smooth="yes"/>
      <point x="213" y="514"/>
      <point x="95" y="333"/>
    </contour>
    <contour>
      <point x="261" y="307" type="line"/>
      <point x="276" y="374"/>
      <point x="313" y="429"/>
      <point x="379" y="429" type="curve" smooth="yes"/>
      <point x="429" y="429"/>
      <point x="449" y="397"/>
      <point x="449" y="353" type="curve" smooth="yes"/>
      <point x="449" y="339"/>
      <point x="447" y="324"/>
      <point x="443" y="307" type="curve"/>
    </contour>
  </outline>
</glyph>
<glyph name="f" format="2">
  <advance width="354"/>
  <unicode hex="0066"/>
  <anchor x="364" y="800" name="top"/>
  <outline>
    <contour>
      <point x="106" y="415" type="line"/>
      <point x="196" y="415" type="line"/>
      <point x="107" y="0" type="line"/>
      <point x="247" y="0" type="line"/>
      <point x="336" y="415" type="line"/>
      <point x="437" y="415" type="line"/>
      <point x="456" y="500" type="line"/>
      <point x="350" y="500" type="line"/>
      <point x="367" y="573" type="line" smooth="yes"/>
      <point x="379" y="624"/>
      <point x="397" y="647"/>
      <point x="446" y="647" type="curve" smooth="yes"/>
      <point x="466" y="647"/>
      <point x="484" y="643"/>
      <point x="501" y="633" type="curve"/>
      <point x="521" y="718" type="line"/>
      <point x="487" y="730"/>
      <point x="455" y="736"/>
      <point x="418" y="736" type="curve" smooth="yes"/>
      <point x="316" y="736"/>
      <point x="260" y="690"/>
      <point x="233" y="576" type="curve" smooth="yes"/>
      <point x="215" y="500" type="line"/>
      <point x="125" y="500" type="line"/>
    </contour>
  </outline>
</glyph>
<glyph name="g" format="2">
  <advance width="621"/>
  <unicode hex="0067"/>
  <anchor x="405" y="580" name="top"/>
  <outline>
    <contour>
      <point x="98" y="174" type="curve" smooth="yes"/>
      <point x="98" y="62"/>
      <point x="157" y="1"/>
      <point x="279" y="1" type="curve" smooth="yes"/>
      <point x="344" y="1"/>
      <point x="400" y="47"/>
      <point x="436" y="81" type="curve"/>
      <point x="421" y="-15"/>
      <point x="397" y="-114"/>
      <point x="278" y="-114" type="curve" smooth="yes"/>
      <point x="236" y="-114"/>
      <point x="198" y="-102"/>
      <point x="198" y="-67" type="curve" smooth="yes"/>
      <point x="198" y="-62"/>
      <point x="199" y="-57"/>
      <point x="200" y="-53" type="curve"/>
      <point x="66" y="-53" type="line"/>
      <point x="64" y="-63"/>
      <point x="62" y="-73"/>
      <point x="62" y="-86" type="curve" smooth="yes"/>
      <point x="62" y="-185"/>
      <point x="183" y="-200"/>
      <point x="256" y="-200" type="curve" smooth="yes"/>
      <point x="407" y="-200"/>
      <point x="521" y="-137"/>
      <point x="554" y="5" type="curve" smooth="yes"/>
      <point x="668" y="500" type="line"/>
      <point x="533" y="500" type="line"/>
      <point x="523" y="454" type="line"/>
      <point x="500" y="490"/>
      <point x="469" y="514"/>
      <point x="390" y="514" type="curve" smooth="yes"/>
      <point x="218" y="514"/>
      <point x="98" y="334"/>
    </contour>
    <contour>
      <point x="234" y="186" type="curve" smooth="yes"/>
      <point x="234" y="276"/>
      <point x="298" y="428"/>
      <point x="406" y="428" type="curve" smooth="yes"/>
      <point x="468" y="428"/>
      <point x="487" y="376"/>
      <point x="487" y="320" type="curve" smooth="yes"/>
      <point x="487" y="228"/>
      <point x="435" y="87"/>
      <point x="321" y="87" type="curve" smooth="yes"/>
      <point x="260" y="87"/>
      <point x="234" y="127"/>
    </contour>
  </outline>
</glyph>
<glyph name="h" format="2">
  <advance width="605"/>
  <unicode hex="0068"/>
  <anchor x="300" y="-60" name="bottom"/>
  <anchor x="312" y="800" name="top"/>
  <outline>
    <contour>
      <point x="73" y="0" type="line"/>
      <point x="208" y="0" type="line"/>
      <point x="274" y="288" type="line" smooth="yes"/>
      <point x="289" y="352"/>
      <point x="352" y="432"/>
      <point x="421" y="432" type="curve" smooth="yes"/>
      <point x="459" y="432"/>
      <point x="481" y="408"/>
      <point x="481" y="359" type="curve" smooth="yes"/>
      <point x="481" y="342"/>
      <point x="478" y="322"/>
      <point x="473" y="299" type="curve" smooth="yes"/>
      <point x="404" y="0" type="line"/>
      <point x="539" y="0" type="line"/>
      <point x="617" y="339" type="line" smooth="yes"/>
      <point x="622" y="359"/>
      <point x="624" y="377"/>
      <point x="624" y="394" type="curve" smooth="yes"/>
      <point x="624" y="469"/>
      <point x="579" y="514"/>
      <point x="484" y="514" type="curve" smooth="yes"/>
      <point x="412" y="514"/>
      <point x="364" y="488"/>
      <point x="310" y="442" type="curve"/>
      <point x="374" y="722" type="line"/>
      <point x="239" y="722" type="line"/>
    </contour>
  </outline>
</glyph>
<glyph name="i" format="2">
  <advance width="264"/>
  <unicode hex="0069"/>
  <anchor x="127" y="-60" name="bottom"/>
  <anchor x="134" y="10" name="bottomUC"/>
  <outline>
    <contour>
      <point x="200" y="0" type="line"/>
      <point x="315" y="500" type="line"/>
      <point x="180" y="500" type="line"/>
      <point x="65" y="0" type="line"/>
    </contour>
    <contour>
      <point x="347" y="592" type="line"/>
      <point x="377" y="722" type="line"/>
      <point x="222" y="722" type="line"/>
      <point x="192" y="592" type="line"/>
    </contour>
  </outline>
</glyph>
<glyph name="j" format="2">
  <advance width="351"/>
  <unicode hex="006A"/>
  <outline>
    <contour>
      <point x="51" y="-212" type="line"/>
      <point x="74" y="-212" type="line" smooth="yes"/>
      <point x="175" y="-212"/>
      <point x="243" y="-193"/>
      <point x="269" y="-80" type="curve" smooth="yes"/>
      <point x="402" y="500" type="line"/>
      <point x="267" y="500" type="line"/>
      <point x="140" y="-50" type="line"/>
      <point x="132" y="-81"/>
      <point x="120" y="-102"/>
      <point x="85" y="-102" type="curve" smooth="yes"/>
      <point x="76" y="-102" type="line"/>
    </contour>
    <contour>
      <point x="279" y="592" type="line"/>
      <point x="434" y="592" type="line"/>
      <point x="464" y="722" type="line"/>
      <point x="309" y="722" type="line"/>
    </contour>
  </outline>
</glyph>
<glyph name="l" format="2">
  <advance width="264"/>
  <unicode hex="006C"/>
  <anchor x="125" y="-60" name="bottom"/>
  <anchor x="393" y="361" name="dotCN"/>
  <anchor x="306" y="800" name="top"/>
  <outline>
    <contour>
      <point x="200" y="0" type="line"/>
      <point x="367" y="722" type="line"/>
      <point x="232" y="722" type="line"/>
      <point x="65" y="0" type="line"/>
    </contour>
  </outline>
</glyph>
<glyph name="o" format="2">
  <advance width="613"/>
  <unicode hex="006F"/>
  <anchor x="293" y="-60" name="bottom"/>
  <anchor x="438" y="580" name="top"/>
  <outline>
    <contour>
      <point x="100" y="187" type="curve" smooth="yes"/>
      <point x="100" y="60"/>
      <point x="184" y="-14"/>
      <point x="307" y="-14" type="curve" smooth="yes"/>
      <point x="484" y="-14"/>
      <point x="633" y="142"/>
      <point x="633" y="312" type="curve" smooth="yes"/>
      <point x="633" y="439"/>
      <point x="550" y="514"/>
      <point x="427" y="514" type="curve" smooth="yes"/>
      <point x="250" y="514"/>
      <point x="100" y="357"/>
    </contour>
    <contour>
      <point x="235" y="179" type="curve" smooth="yes"/>
      <point x="235" y="276"/>
      <point x="290" y="428"/>
      <point x="410" y="428" type="curve" smooth="yes"/>
      <point x="473" y="428"/>
      <point x="498" y="386"/>
      <point x="498" y="321" type="curve" smooth="yes"/>
      <point x="498" y="224"/>
      <point x="443" y="72"/>
      <point x="323" y="72" type="curve" smooth="yes"/>
      <point x="260" y="72"/>
      <point x="235" y="114"/>
    </contour>
  </outline>
</glyph>
<glyph name="q" format="2">
  <advance width="623"/>
  <unicode hex="0071"/>
  <anchor x="272" y="-60" name="bottom"/>
  <anchor x="415" y="580" name="top"/>
  <outline>
    <contour>
      <point x="99" y="173" type="curve" smooth="yes"/>
      <point x="99" y="58"/>
      <point x="153" y="-14"/>
      <point x="262" y="-14" type="curve" smooth="yes"/>
      <point x="320" y="-14"/>
      <point x="374" y="6"/>
      <point x="430" y="45" type="curve"/>
      <point x="374" y="-200" type="line"/>
      <point x="509" y="-200" type="line"/>
      <point x="670" y="500" type="line"/>
      <point x="536" y="500" type="line"/>
      <point x="520" y="431" type="line"/>
      <point x="506" y="472"/>
      <point x="466" y="513"/>
      <point x="400" y="513" type="curve" smooth="yes"/>
      <point x="210" y="513"/>
      <point x="99" y="338"/>
    </contour>
    <contour>
      <point x="238" y="184" type="curve" smooth="yes"/>
      <point x="238" y="280"/>
      <point x="292" y="422"/>
      <point x="398" y="422" type="curve" smooth="yes"/>
      <point x="464" y="422"/>
      <point x="489" y="368"/>
      <point x="489" y="309" type="curve" smooth="yes"/>
      <point x="489" y="217"/>
      <point x="429" y="71"/>
      <point x="323" y="71" type="curve" smooth="yes"/>
      <point x="259" y="71"/>
      <point x="238" y="124"/>
    </contour>
  </outline>
</glyph>
<glyph name="r" format="2">
  <advance width="408"/>
  <unicode hex="0072"/>
  <anchor x="131" y="-60" name="bottom"/>
  <anchor x="356" y="580" name="top"/>
  <outline>
    <contour>
      <point x="73" y="0" type="line"/>
      <point x="208" y="0" type="line"/>
      <point x="267" y="256" type="line" smooth="yes"/>
      <point x="290" y="354"/>
      <point x="369" y="399"/>
      <point x="471" y="399" type="curve"/>
      <point x="498" y="514" type="line"/>
      <point x="409" y="514"/>
      <point x="360" y="496"/>
      <point x="306" y="423" type="curve"/>
      <point x="323" y="500" type="line"/>
      <point x="188" y="500" type="line"/>
    </contour>
  </outline>
</glyph>
<glyph name="t" format="2">
  <advance width="418"/>
  <unicode hex="0074"/>
  <anchor x="224" y="-60" name="bottom"/>
  <anchor x="248" y="10" name="cedillaC"/>
  <anchor x="524" y="816" name="leftTM"/>
  <anchor x="353" y="700" name="top"/>
  <outline>
    <contour>
      <point x="302" y="159" type="curve" smooth="yes"/>
      <point x="361" y="415" type="line"/>
      <point x="480" y="415" type="line"/>
      <point x="499" y="500" type="line"/>
      <point x="380" y="500" type="line"/>
      <point x="414" y="647" type="line"/>
      <point x="264" y="590" type="line"/>
      <point x="245" y="500" type="line"/>
      <point x="145" y="500" type="line"/>
      <point x="126" y="415" type="line"/>
      <point x="226" y="415" type="line"/>
      <point x="158" y="121" type="line"/>
      <point x="156" y="111"/>
      <point x="155" y="101"/>
      <point x="155" y="92" type="curve" smooth="yes"/>
      <point x="155" y="27"/>
      <point x="212" y="-12"/>
      <point x="293" y="-12" type="curve" smooth="yes"/>
      <point x="325" y="-12"/>
      <point x="360" y="-6"/>
      <point x="394" y="5" type="curve"/>
      <point x="414" y="90" type="line"/>
      <point x="398" y="84"/>
      <point x="380" y="81"/>
      <point x="364" y="81" type="curve" smooth="yes"/>
      <point x="322" y="81"/>
      <point x="299" y="100"/>
      <point x="299" y="135" type="curve" smooth="yes"/>
      <point x="299" y="142"/>
      <point x="300" y="150"/>
    </contour>
  </outline>
</glyph>
<glyph name="u" format="2">
  <advance width="605"/>
  <unicode hex="0075"/>
  <anchor x="284" y="-60" name="bottom"/>
  <anchor x="438" y="10" name="bottomUC"/>
  <anchor x="427" y="580" name="top"/>
  <outline>
    <contour>
      <point x="101" y="106" type="curve" smooth="yes"/>
      <point x="101" y="31"/>
      <point x="145" y="-14"/>
      <point x="235" y="-14" type="curve" smooth="yes"/>
      <point x="327" y="-14"/>
      <point x="358" y="3"/>
      <point x="417" y="68" type="curve"/>
      <point x="401" y="0" type="line"/>
      <point x="536" y="0" type="line"/>
      <point x="652" y="501" type="line"/>
      <point x="517" y="501" type="line"/>
      <point x="452" y="222" type="line" smooth="yes"/>
      <point x="435" y="150"/>
      <point x="398" y="67"/>
      <point x="312" y="67" type="curve" smooth="yes"/>
      <point x="266" y="67"/>
      <point x="244" y="91"/>
      <point x="244" y="140" type="curve" smooth="yes"/>
      <point x="244" y="157"/>
      <point x="247" y="177"/>
      <point x="252" y="200" type="curve" smooth="yes"/>
      <point x="321" y="500" type="line"/>
      <point x="186" y="500" type="line"/>
      <point x="108" y="160" type="line" smooth="yes"/>
      <point x="103" y="140"/>
      <point x="101" y="122"/>
    </contour>
  </outline>
</glyph>
<glyph name="v" format="2">
  <advance width="575"/>
  <unicode hex="0076"/>
  <anchor x="275" y="-60" name="bottom"/>
  <anchor x="399" y="580" name="top"/>
  <outline>
    <contour>
      <point x="658" y="500" type="line"/>
      <point x="514" y="500" type="line"/>
      <point x="316" y="151" type="line"/>
      <point x="278" y="500" type="line"/>
      <point x="134" y="500" type="line"/>
      <point x="206" y="0" type="line"/>
      <point x="356" y="0" type="line"/>
    </contour>
  </outline>
</glyph>
<glyph name="w" format="2">
  <advance width="887"/>
  <unicode hex="0077"/>
  <anchor x="437" y="-60" name="bottom"/>
  <anchor x="562" y="580" name="top"/>
  <outline>
    <contour>
      <point x="970" y="500" type="line"/>
      <point x="831" y="500" type="line"/>
      <point x="659" y="170" type="line"/>
      <point x="630" y="500" type="line"/>
      <point x="474" y="500" type="line"/>
      <point x="293" y="170" type="line"/>
      <point x="273" y="500" type="line"/>
      <point x="134" y="500" type="line"/>
      <point x="172" y="0" type="line"/>
      <point x="332" y="0" type="line"/>
      <point x="518" y="350" type="line"/>
      <point x="542" y="0" type="line"/>
      <point x="702" y="0" type="line"/>
    </contour>
  </outline>
</glyph>
<glyph name="y" format="2">
  <advance width="564"/>
  <unicode hex="0079"/>
  <anchor x="450" y="-60" name="bottom"/>
  <anchor x="398" y="580" name="top"/>
  <outline>
    <contour>
      <point x="98" y="-200" type="line"/>
      <point x="246" y="-200" type="line"/>
      <point x="657" y="500" type="line"/>
      <point x="514" y="500" type="line"/>
      <point x="331" y="180" type="line"/>
      <point x="287" y="500" type="line"/>
      <point x="134" y="500" type="line"/>
      <point x="219" y="0" type="line"/>
    </contour>
  </outline>
</glyph>
<glyph name="bar" format="2">
  <advance width="344"/>
  <unicode hex="007C"/>
  <outline>
    <contour>
      <point x="148" y="-258" type="line"/>
      <point x="392" y="796" type="line"/>
      <point x="321" y="796" type="line"/>
      <point x="77" y="-258" type="line"/>
    </contour>
  </outline>
</glyph>
<glyph name="exclamdown" format="2">
  <advance width="399"/>
  <unicode hex="00A1"/>
  <outline>
    <contour>
      <point x="349" y="385" type="line"/>
      <point x="375" y="500" type="line"/>
      <point x="245" y="500" type="line"/>
      <point x="219" y="385" type="line"/>
    </contour>
    <contour>
      <point x="224" y="-198" type="line"/>
      <point x="315" y="309" type="line"/>
      <point x="217" y="309" type="line"/>
      <point x="74" y="-198" type="line"/>
    </contour>
  </outline>
</glyph>
<glyph name="cent" format="2">
  <advance width="573"/>
  <unicode hex="00A2"/>
  <outline>
    <contour>
      <point x="108" y="-128" type="line"/>
      <point x="158" y="-141" type="line"/>
      <point x="578" y="612" type="line"/>
      <point x="527" y="625" type="line"/>
    </contour>
    <contour>
      <point x="107" y="164" type="curve" smooth="yes"/>
      <point x="107" y="33"/>
      <point x="183" y="-15"/>
      <point x="295" y="-15" type="curve" smooth="yes"/>
      <point x="425" y="-15"/>
      <point x="523" y="49"/>
      <point x="554" y="182" type="curve"/>
      <point x="419" y="182" type="line"/>
      <point x="403" y="114"/>
      <point x="373" y="70"/>
      <point x="313" y="70" type="curve" smooth="yes"/>
      <point x="253" y="70"/>
      <point x="237" y="113"/>
      <point x="237" y="166" type="curve" smooth="yes"/>
      <point x="237" y="255"/>
      <point x="282" y="429"/>
      <point x="394" y="429" type="curve" smooth="yes"/>
      <point x="432" y="429"/>
      <point x="457" y="408"/>
      <point x="457" y="355" type="curve" smooth="yes"/>
      <point x="457" y="345"/>
      <point x="456" y="335"/>
      <point x="454" y="326" type="curve"/>
      <point x="586" y="326" type="line"/>
      <point x="590" y="344"/>
      <point x="593" y="363"/>
      <point x="593" y="383" type="curve" smooth="yes"/>
      <point x="593" y="493"/>
      <point x="495" y="514"/>
      <point x="405" y="514" type="curve" smooth="yes"/>
      <point x="219" y="514"/>
      <point x="107" y="325"/>
    </contour>
  </outline>
</glyph>
<glyph name="sterling" format="2">
  <advance width="573"/>
  <unicode hex="00A3"/>
  <outline>
    <contour>
      <point x="258" y="558" type="curve" smooth="yes"/>
      <point x="233" y="451" type="line"/>
      <point x="160" y="451" type="line"/>
      <point x="141" y="366" type="line"/>
      <point x="214" y="366" type="line"/>
      <point x="149" y="85" type="line"/>
      <point x="76" y="85" type="line"/>
      <point x="56" y="0" type="line"/>
      <point x="550" y="0" type="line"/>
      <point x="570" y="85" type="line"/>
      <point x="284" y="85" type="line"/>
      <point x="349" y="366" type="line"/>
      <point x="484" y="366" type="line"/>
      <point x="503" y="451" type="line"/>
      <point x="368" y="451" type="line"/>
      <point x="392" y="554" type="line" smooth="yes"/>
      <point x="407" y="619"/>
      <point x="440" y="651"/>
      <point x="492" y="651" type="curve" smooth="yes"/>
      <point x="531" y="651"/>
      <point x="550" y="633"/>
      <point x="550" y="596" type="curve" smooth="yes"/>
      <point x="550" y="587"/>
      <point x="549" y="576"/>
      <point x="546" y="563" type="curve"/>
      <point x="681" y="563" type="line"/>
      <point x="686" y="585"/>
      <point x="689" y="603"/>
      <point x="689" y="621" type="curve" smooth="yes"/>
      <point x="689" y="720"/>
      <point x="594" y="736"/>
      <point x="518" y="736" type="curve" smooth="yes"/>
      <point x="377" y="736"/>
      <point x="287" y="682"/>
    </contour>
  </outline>
</glyph>
<glyph name="yen" format="2">
  <advance width="573"/>
  <unicode hex="00A5"/>
  <outline>
    <contour>
      <point x="739" y="722" type="line"/>
      <point x="590" y="722" type="line"/>
      <point x="384" y="419" type="line"/>
      <point x="318" y="722" type="line"/>
      <point x="169" y="722" type="line"/>
      <point x="219" y="523" type="line"/>
      <point x="134" y="523" type="line"/>
      <point x="119" y="457" type="line"/>
      <point x="236" y="457" type="line"/>
      <point x="266" y="338" type="line"/>
      <point x="91" y="338" type="line"/>
      <point x="76" y="272" type="line"/>
      <point x="283" y="272" type="line"/>
      <point x="220" y="0" type="line"/>
      <point x="354" y="0" type="line"/>
      <point x="417" y="272" type="line"/>
      <point x="624" y="272" type="line"/>
      <point x="639" y="338" type="line"/>
      <point x="464" y="338" type="line"/>
      <point x="550" y="457" type="line"/>
      <point x="667" y="457" type="line"/>
      <point x="682" y="523" type="line"/>
      <point x="596" y="523" type="line"/>
    </contour>
  </outline>
</glyph>
<glyph name="ordfeminine" format="2">
  <advance width="444"/>
  <unicode hex="00AA"/>
  <outline>
    <component base="a" xScale="0.7106" yScale="0.7106" xOffset="84" yOffset="352"/>
    <contour>
      <point x="460" y="232" type="line"/>
      <point x="470" y="279" type="line"/>
      <point x="121" y="279" type="line"/>
      <point x="111" y="232" type="line"/>
    </contour>
  </outline>
</glyph>
<glyph name="guillemotleft" format="2">
  <advance width="603"/>
  <unicode hex="00AB"/>
  <outline>
    <contour>
      <point x="564" y="57" type="line"/>
      <point x="519" y="252" type="line"/>
      <point x="654" y="447" type="line"/>
      <point x="524" y="447" type="line"/>
      <point x="369" y="252" type="line"/>
      <point x="434" y="57" type="line"/>
    </contour>
    <contour>
      <point x="306" y="57" type="line"/>
      <point x="261" y="252" type="line"/>
      <point x="396" y="447" type="line"/>
      <point x="266" y="447" type="line"/>
      <point x="111" y="252" type="line"/>
      <point x="176" y="57" type="line"/>
    </contour>
  </outline>
</glyph>
<glyph name="registered" format="2">
  <advance width="497"/>
  <unicode hex="00AE"/>
  <outline>
    <contour>
      <point x="321" y="421" type="curve" smooth="yes"/>
      <point x="262" y="421"/>
      <point x="219" y="466"/>
      <point x="219" y="520" type="curve" smooth="yes"/>
      <point x="219" y="618"/>
      <point x="282" y="718"/>
      <point x="414" y="718" type="curve" smooth="yes"/>
      <point x="472" y="718"/>
      <point x="513" y="669"/>
      <point x="513" y="618" type="curve" smooth="yes"/>
      <point x="513" y="512"/>
      <point x="439" y="421"/>
    </contour>
    <contour>
      <point x="590" y="611" type="curve" smooth="yes"/>
      <point x="590" y="714"/>
      <point x="515" y="788"/>
      <point x="427" y="788" type="curve" smooth="yes"/>
      <point x="262" y="788"/>
      <point x="142" y="666"/>
      <point x="142" y="520" type="curve" smooth="yes"/>
      <point x="142" y="425"/>
      <point x="217" y="351"/>
      <point x="322" y="351" type="curve" smooth="yes"/>
      <point x="458" y="351"/>
      <point x="590" y="474"/>
    </contour>
    <contour>
      <point x="268" y="473" type="line"/>
      <point x="329" y="473" type="line"/>
      <point x="344" y="548" type="line"/>
      <point x="350" y="548" type="line" smooth="yes"/>
      <point x="361" y="548"/>
      <point x="370" y="542"/>
      <point x="370" y="524" type="curve" smooth="yes"/>
      <point x="370" y="511"/>
      <point x="367" y="487"/>
      <point x="367" y="473" type="curve"/>
      <point x="433" y="473" type="line"/>
      <point x="432" y="492"/>
      <point x="435" y="523"/>
      <point x="435" y="551" type="curve" smooth="yes"/>
      <point x="435" y="563"/>
      <point x="428" y="572"/>
      <point x="414" y="576" type="curve"/>
      <point x="442" y="584"/>
      <point x="456" y="605"/>
      <point x="456" y="631" type="curve" smooth="yes"/>
      <point x="456" y="655"/>
      <point x="433" y="675"/>
      <point x="393" y="675" type="curve" smooth="yes"/>
      <point x="308" y="675" type="line"/>
    </contour>
    <contour>
      <point x="353" y="592" type="line"/>
      <point x="362" y="634" type="line"/>
      <point x="367" y="634" type="line" smooth="yes"/>
      <point x="387" y="634"/>
      <point x="392" y="629"/>
      <point x="392" y="614" type="curve" smooth="yes"/>
      <point x="392" y="598"/>
      <point x="380" y="592"/>
      <point x="356" y="592" type="curve" smooth="yes"/>
    </contour>
  </outline>
  <guideline angle="0" x="0" y="722"/>
  <guideline angle="0" x="0" y="413"/>
</glyph>
<glyph name="macron" format="2">
  <advance width="319"/>
  <unicode hex="00AF"/>
  <outline>
    <contour>
      <point x="462" y="630" type="line"/>
      <point x="480" y="709" type="line"/>
      <point x="158" y="709" type="line"/>
      <point x="141" y="630" type="line"/>
    </contour>
  </outline>
</glyph>
<glyph name="degree" format="2">
  <advance width="292"/>
  <unicode hex="00B0"/>
  <outline>
    <contour>
      <point x="321" y="726" type="curve" smooth="yes"/>
      <point x="240" y="726"/>
      <point x="173" y="664"/>
      <point x="173" y="587" type="curve" smooth="yes"/>
      <point x="173" y="526"/>
      <point x="217" y="487"/>
      <point x="275" y="487" type="curve" smooth="yes"/>
      <point x="352" y="487"/>
      <point x="423" y="555"/>
      <point x="423" y="632" type="curve" smooth="yes"/>
      <point x="423" y="688"/>
      <point x="385" y="726"/>
    </contour>
    <contour>
      <point x="292" y="552" type="curve" smooth="yes"/>
      <point x="262" y="552"/>
      <point x="244" y="571"/>
      <point x="244" y="599" type="curve" smooth="yes"/>
      <point x="244" y="634"/>
      <point x="273" y="661"/>
      <point x="312" y="661" type="curve" smooth="yes"/>
      <point x="340" y="661"/>
      <point x="357" y="646"/>
      <point x="357" y="617" type="curve" smooth="yes"/>
      <point x="357" y="580"/>
      <point x="328" y="552"/>
    </contour>
  </outline>
</glyph>
<glyph name="plusminus" format="2">
  <advance width="1000"/>
  <unicode hex="00B1"/>
  <outline>
    <contour>
      <point x="879" y="338" type="line"/>
      <point x="905" y="450" type="line"/>
      <point x="676" y="450" type="line"/>
      <point x="714" y="620" type="line"/>
      <point x="572" y="620" type="line"/>
      <point x="534" y="450" type="line"/>
      <point x="305" y="450" type="line"/>
      <point x="279" y="338" type="line"/>
      <point x="508" y="338" type="line"/>
      <point x="474" y="192" type="line"/>
      <point x="616" y="192" type="line"/>
      <point x="650" y="338" type="line"/>
    </contour>
    <contour>
      <point x="800" y="0" type="line"/>
      <point x="824" y="112" type="line"/>
      <point x="224" y="112" type="line"/>
      <point x="200" y="0" type="line"/>
    </contour>
  </outline>
</glyph>
<glyph name="twosuperior" format="2">
  <advance width="371"/>
  <unicode hex="00B2"/>
  <outline>
    <contour>
      <point x="110" y="351" type="line"/>
      <point x="416" y="351" type="line"/>
      <point x="430" y="412" type="line"/>
      <point x="227" y="412" type="line"/>
      <point x="277" y="441" type="line" smooth="yes"/>
      <point x="463" y="549"/>
      <point x="494" y="587"/>
      <point x="494" y="656" type="curve" smooth="yes"/>
      <point x="494" y="714"/>
      <point x="433" y="745"/>
      <point x="367" y="745" type="curve" smooth="yes"/>
      <point x="288" y="745"/>
      <point x="196" y="701"/>
      <point x="180" y="629" type="curve"/>
      <point x="287" y="629" type="line"/>
      <point x="295" y="663"/>
      <point x="320" y="684"/>
      <point x="350" y="684" type="curve" smooth="yes"/>
      <point x="376" y="684"/>
      <point x="388" y="669"/>
      <point x="388" y="650" type="curve" smooth="yes"/>
      <point x="388" y="595"/>
      <point x="287" y="527"/>
      <point x="165" y="446" type="curve" smooth="yes"/>
      <point x="126" y="420" type="line"/>
    </contour>
  </outline>
</glyph>
<glyph name="paragraph" format="2">
  <advance width="559"/>
  <unicode hex="00B6"/>
  <outline>
    <contour>
      <point x="670" y="672" type="line"/>
      <point x="682" y="722" type="line"/>
      <point x="412" y="722" type="line" smooth="yes"/>
      <point x="294" y="722"/>
      <point x="161" y="604"/>
      <point x="161" y="485" type="curve" smooth="yes"/>
      <point x="161" y="400"/>
      <point x="228" y="352"/>
      <point x="315" y="352" type="curve"/>
      <point x="197" y="-160" type="line"/>
      <point x="267" y="-160" type="line"/>
      <point x="459" y="672" type="line"/>
      <point x="539" y="672" type="line"/>
      <point x="347" y="-160" type="line"/>
      <point x="417" y="-160" type="line"/>
      <point x="609" y="672" type="line"/>
    </contour>
  </outline>
</glyph>
<glyph name="onesuperior" format="2">
  <advance width="290"/>
  <unicode hex="00B9"/>
  <outline>
    <contour>
      <point x="315" y="350" type="line"/>
      <point x="404" y="736" type="line"/>
      <point x="319" y="736" type="line"/>
      <point x="306" y="727" type="line" smooth="yes"/>
      <point x="281" y="709"/>
      <point x="232" y="687"/>
      <point x="197" y="676" type="curve"/>
      <point x="182" y="610" type="line"/>
      <point x="218" y="620"/>
      <point x="253" y="639"/>
      <point x="286" y="660" type="curve"/>
      <point x="215" y="350" type="line"/>
    </contour>
  </outline>
</glyph>
<glyph name="ordmasculine" format="2">
  <advance width="411"/>
  <unicode hex="00BA"/>
  <outline>
    <contour>
      <point x="140" y="478" type="curve" smooth="yes"/>
      <point x="140" y="390"/>
      <point x="196" y="339"/>
      <point x="282" y="339" type="curve" smooth="yes"/>
      <point x="405" y="339"/>
      <point x="513" y="445"/>
      <point x="513" y="569" type="curve" smooth="yes"/>
      <point x="513" y="658"/>
      <point x="457" y="709"/>
      <point x="372" y="709" type="curve" smooth="yes"/>
      <point x="248" y="709"/>
      <point x="140" y="599"/>
    </contour>
    <contour>
      <point x="235" y="475" type="curve" smooth="yes"/>
      <point x="235" y="542"/>
      <point x="273" y="649"/>
      <point x="357" y="649" type="curve" smooth="yes"/>
      <point x="401" y="649"/>
      <point x="418" y="620"/>
      <point x="418" y="574" type="curve" smooth="yes"/>
      <point x="418" y="507"/>
      <point x="380" y="399"/>
      <point x="297" y="399" type="curve" smooth="yes"/>
      <point x="252" y="399"/>
      <point x="235" y="429"/>
    </contour>
    <contour>
      <point x="438" y="230" type="line"/>
      <point x="449" y="277" type="line"/>
      <point x="97" y="277" type="line"/>
      <point x="86" y="230" type="line"/>
    </contour>
  </outline>
</glyph>
<glyph name="guillemotright" format="2">
  <advance width="603"/>
  <unicode hex="00BB"/>
  <outline>
    <contour>
      <point x="609" y="252" type="line"/>
      <point x="544" y="447" type="line"/>
      <point x="414" y="447" type="line"/>
      <point x="459" y="252" type="line"/>
      <point x="324" y="57" type="line"/>
      <point x="454" y="57" type="line"/>
    </contour>
    <contour>
      <point x="351" y="252" type="line"/>
      <point x="286" y="447" type="line"/>
      <point x="156" y="447" type="line"/>
      <point x="201" y="252" type="line"/>
      <point x="66" y="57" type="line"/>
      <point x="196" y="57" type="line"/>
    </contour>
  </outline>
</glyph>
<glyph name="onehalf" format="2">
  <advance width="799"/>
  <unicode hex="00BD"/>
  <outline>
    <component base="twosuperior" xOffset="337" yOffset="-351"/>
    <component base="onesuperior"/>
    <contour>
      <point x="800" y="737" type="line"/>
      <point x="701" y="737" type="line"/>
      <point x="102" y="-13" type="line"/>
      <point x="201" y="-13" type="line"/>
    </contour>
  </outline>
</glyph>
<glyph name="questiondown" format="2">
  <advance width="539"/>
  <unicode hex="00BF"/>
  <outline>
    <contour>
      <point x="396" y="233" type="curve"/>
      <point x="416" y="319" type="line"/>
      <point x="316" y="319" type="line"/>
      <point x="299" y="249" type="line" smooth="yes"/>
      <point x="292" y="219"/>
      <point x="251" y="192"/>
      <point x="202" y="162" type="curve" smooth="yes"/>
      <point x="125" y="115"/>
      <point x="32" y="56"/>
      <point x="32" y="-44" type="curve" smooth="yes"/>
      <point x="32" y="-154"/>
      <point x="145" y="-197"/>
      <point x="236" y="-197" type="curve" smooth="yes"/>
      <point x="331" y="-197"/>
      <point x="415" y="-151"/>
      <point x="486" y="-56" type="curve"/>
      <point x="407" y="5" type="line"/>
      <point x="371" y="-57"/>
      <point x="332" y="-96"/>
      <point x="259" y="-96" type="curve" smooth="yes"/>
      <point x="205" y="-96"/>
      <point x="175" y="-74"/>
      <point x="175" y="-25" type="curve" smooth="yes"/>
      <point x="175" y="47"/>
      <point x="242" y="95"/>
      <point x="303" y="138" type="curve" smooth="yes"/>
      <point x="348" y="170"/>
      <point x="389" y="199"/>
    </contour>
    <contour>
      <point x="442" y="388" type="line"/>
      <point x="467" y="500" type="line"/>
      <point x="347" y="500" type="line"/>
      <point x="322" y="388" type="line"/>
    </contour>
  </outline>
</glyph>
<glyph name="multiply" format="2">
  <advance width="1000"/>
  <unicode hex="00D7"/>
  <outline>
    <contour>
      <point x="786" y="69" type="line"/>
      <point x="609" y="300" type="line"/>
      <point x="893" y="531" type="line"/>
      <point x="863" y="570" type="line"/>
      <point x="578" y="338" type="line"/>
      <point x="401" y="570" type="line"/>
      <point x="353" y="531" type="line"/>
      <point x="529" y="300" type="line"/>
      <point x="246" y="69" type="line"/>
      <point x="276" y="30" type="line"/>
      <point x="560" y="262" type="line"/>
      <point x="738" y="30" type="line"/>
    </contour>
  </outline>
</glyph>
<glyph name="Oslash" format="2">
  <advance width="793"/>
  <unicode hex="00D8"/>
  <anchor x="560" y="800" name="top"/>
  <outline>
    <component base="O"/>
    <contour>
      <point x="62" y="-51" type="line"/>
      <point x="944" y="722" type="line"/>
      <point x="896" y="775" type="line"/>
      <point x="15" y="3" type="line"/>
    </contour>
  </outline>
</glyph>
<glyph name="germandbls" format="2">
  <advance width="573"/>
  <unicode hex="00DF"/>
  <outline>
    <contour>
      <point x="41" y="0" type="line"/>
      <point x="176" y="0" type="line"/>
      <point x="291" y="499" type="line" smooth="yes"/>
      <point x="307" y="570"/>
      <point x="347" y="622"/>
      <point x="419" y="622" type="curve" smooth="yes"/>
      <point x="461" y="622"/>
      <point x="484" y="604"/>
      <point x="484" y="565" type="curve" smooth="yes"/>
      <point x="484" y="454"/>
      <point x="309" y="456"/>
      <point x="309" y="345" type="curve" smooth="yes"/>
      <point x="309" y="243"/>
      <point x="458" y="245"/>
      <point x="458" y="155" type="curve" smooth="yes"/>
      <point x="458" y="125"/>
      <point x="440" y="100"/>
      <point x="399" y="100" type="curve" smooth="yes"/>
      <point x="371" y="100"/>
      <point x="351" y="112"/>
      <point x="351" y="129" type="curve" smooth="yes"/>
      <point x="351" y="133"/>
      <point x="352" y="138"/>
      <point x="354" y="148" type="curve"/>
      <point x="241" y="148" type="line"/>
      <point x="236" y="128"/>
      <point x="234" y="115"/>
      <point x="234" y="102" type="curve" smooth="yes"/>
      <point x="234" y="23"/>
      <point x="306" y="-14"/>
      <point x="371" y="-14" type="curve" smooth="yes"/>
      <point x="495" y="-14"/>
      <point x="594" y="41"/>
      <point x="594" y="180" type="curve" smooth="yes"/>
      <point x="594" y="298"/>
      <point x="459" y="330"/>
      <point x="459" y="379" type="curve" smooth="yes"/>
      <point x="459" y="433"/>
      <point x="626" y="485"/>
      <point x="626" y="611" type="curve" smooth="yes"/>
      <point x="626" y="712"/>
      <point x="519" y="736"/>
      <point x="444" y="736" type="curve" smooth="yes"/>
      <point x="289" y="736"/>
      <point x="196" y="672"/>
      <point x="167" y="545" type="curve" smooth="yes"/>
    </contour>
  </outline>
</glyph>
<glyph name="eth" format="2">
  <advance width="604"/>
  <unicode hex="00F0"/>
  <outline>
    <contour>
      <point x="92" y="180" type="curve" smooth="yes"/>
      <point x="92" y="41"/>
      <point x="179" y="-17"/>
      <point x="304" y="-17" type="curve" smooth="yes"/>
      <point x="528" y="-17"/>
      <point x="629" y="168"/>
      <point x="629" y="363" type="curve" smooth="yes"/>
      <point x="629" y="477"/>
      <point x="594" y="570"/>
      <point x="545" y="634" type="curve"/>
      <point x="691" y="696" type="line"/>
      <point x="679" y="751" type="line"/>
      <point x="510" y="680" type="line"/>
      <point x="485" y="702"/>
      <point x="431" y="734"/>
      <point x="392" y="745" type="curve"/>
      <point x="327" y="707" type="line"/>
      <point x="356" y="693"/>
      <point x="388" y="668"/>
      <point x="413" y="639" type="curve"/>
      <point x="238" y="566" type="line"/>
      <point x="250" y="513" type="line"/>
      <point x="445" y="594" type="line"/>
      <point x="460" y="571"/>
      <point x="471" y="541"/>
      <point x="479" y="504" type="curve"/>
      <point x="472.471" y="504.816"/>
      <point x="427.234" y="510.471"/>
      <point x="415" y="512" type="curve"/>
      <point x="226" y="512"/>
      <point x="92" y="353"/>
    </contour>
    <contour>
      <point x="225" y="180" type="curve" smooth="yes"/>
      <point x="225" y="279"/>
      <point x="282" y="426"/>
      <point x="403" y="426" type="curve" smooth="yes"/>
      <point x="460" y="426"/>
      <point x="489" y="393"/>
      <point x="489" y="320" type="curve" smooth="yes"/>
      <point x="489" y="224"/>
      <point x="440" y="68"/>
      <point x="317" y="68" type="curve" smooth="yes"/>
      <point x="252" y="68"/>
      <point x="225" y="112"/>
    </contour>
  </outline>
</glyph>
<glyph name="oslash" format="2">
  <advance width="591"/>
  <unicode hex="00F8"/>
  <anchor x="410" y="580" name="top"/>
  <outline>
    <component base="o"/>
    <contour>
      <point x="15" y="-41" type="line"/>
      <point x="64" y="-83" type="line"/>
      <point x="684" y="551" type="line"/>
      <point x="635" y="593" type="line"/>
    </contour>
  </outline>
</glyph>
<glyph name="thorn" format="2">
  <advance width="627"/>
  <unicode hex="00FE"/>
  <outline>
    <contour>
      <point x="641" y="348" type="curve"/>
      <point x="636" y="443"/>
      <point x="586" y="514"/>
      <point x="469" y="514" type="curve" smooth="yes"/>
      <point x="397" y="514"/>
      <point x="345" y="487"/>
      <point x="306" y="432" type="curve"/>
      <point x="373" y="722" type="line"/>
      <point x="238" y="722" type="line"/>
      <point x="25" y="-200" type="line"/>
      <point x="160" y="-200" type="line"/>
      <point x="216" y="46" type="line"/>
      <point x="236" y="13"/>
      <point x="277" y="-14"/>
      <point x="348" y="-14" type="curve" smooth="yes"/>
      <point x="539" y="-14"/>
      <point x="641" y="180"/>
    </contour>
    <contour>
      <point x="424" y="424" type="curve" smooth="yes"/>
      <point x="486" y="424"/>
      <point x="508" y="376"/>
      <point x="508" y="320" type="curve" smooth="yes"/>
      <point x="508" y="226"/>
      <point x="444" y="71"/>
      <point x="330" y="71" type="curve" smooth="yes"/>
      <point x="266" y="71"/>
      <point x="253" y="119"/>
      <point x="253" y="166" type="curve" smooth="yes"/>
      <point x="253" y="266"/>
      <point x="312" y="424"/>
    </contour>
  </outline>
</glyph>
<glyph name="Dcroat" format="2">
  <advance width="728"/>
  <unicode hex="0110"/>
  <outline>
    <component base="D"/>
    <contour>
      <point x="94" y="405" type="line"/>
      <point x="73" y="315" type="line"/>
      <point x="432" y="315" type="line"/>
      <point x="453" y="405" type="line"/>
    </contour>
  </outline>
</glyph>
<glyph name="dcroat" format="2">
  <advance width="598"/>
  <unicode hex="0111"/>
  <outline>
    <component base="d"/>
    <contour>
      <point x="428" y="563" type="line"/>
      <point x="730" y="563" type="line"/>
      <point x="750" y="652" type="line"/>
      <point x="448" y="652" type="line"/>
    </contour>
  </outline>
</glyph>
<glyph name="Hbar" format="2">
  <advance width="669"/>
  <unicode hex="0126"/>
  <outline>
    <component base="H"/>
    <contour>
      <point x="134" y="517" type="line"/>
      <point x="803" y="517" type="line"/>
      <point x="824" y="611" type="line"/>
      <point x="155" y="611" type="line"/>
    </contour>
  </outline>
</glyph>
<glyph name="kgreenlandic" format="2">
  <advance width="479"/>
  <unicode hex="0138"/>
  <anchor x="272" y="-60" name="bottom"/>
  <anchor x="303" y="800" name="top"/>
  <outline>
    <contour>
      <point x="535" y="0" type="line"/>
      <point x="405" y="284" type="line"/>
      <point x="634" y="500" type="line"/>
      <point x="472" y="500" type="line"/>
      <point x="269" y="301" type="line"/>
      <point x="315" y="500" type="line"/>
      <point x="162" y="448" type="line"/>
      <point x="65" y="0" type="line"/>
      <point x="200" y="0" type="line"/>
      <point x="260" y="261" type="line"/>
      <point x="371" y="0" type="line"/>
    </contour>
  </outline>
</glyph>
<glyph name="napostrophe" format="2">
  <advance width="741"/>
  <unicode hex="0149"/>
  <outline>
    <component base="n" xOffset="139"/>
    <contour>
      <point x="346" y="722" type="line"/>
      <point x="196" y="722" type="line"/>
      <point x="155" y="432" type="line"/>
      <point x="253" y="432" type="line"/>
    </contour>
  </outline>
</glyph>
<glyph name="Eng" format="2">
  <advance width="683"/>
  <unicode hex="014A"/>
  <outline>
    <component base="N"/>
    <contour>
      <point x="568" y="20" type="line"/>
      <point x="553" y="-42" type="line" smooth="yes"/>
      <point x="546" y="-71"/>
      <point x="533" y="-90"/>
      <point x="504" y="-90" type="curve" smooth="yes"/>
      <point x="487" y="-90"/>
      <point x="477" y="-84"/>
      <point x="463" y="-67" type="curve"/>
      <point x="382" y="-143" type="line"/>
      <point x="408" y="-181"/>
      <point x="450" y="-200"/>
      <point x="503" y="-200" type="curve" smooth="yes"/>
      <point x="593" y="-200"/>
      <point x="665" y="-146"/>
      <point x="684" y="-62" type="curve" smooth="yes"/>
      <point x="703" y="20" type="line"/>
    </contour>
  </outline>
</glyph>
<glyph name="eng" format="2">
  <advance width="1084"/>
  <unicode hex="014B"/>
  <outline>
    <component base="n" xOffset="1"/>
    <contour>
      <point x="410" y="20" type="line"/>
      <point x="395" y="-42" type="line" smooth="yes"/>
      <point x="388" y="-71"/>
      <point x="375" y="-90"/>
      <point x="346" y="-90" type="curve" smooth="yes"/>
      <point x="329" y="-90"/>
      <point x="319" y="-84"/>
      <point x="305" y="-67" type="curve"/>
      <point x="224" y="-143" type="line"/>
      <point x="250" y="-181"/>
      <point x="292" y="-200"/>
      <point x="345" y="-200" type="curve" smooth="yes"/>
      <point x="435" y="-200"/>
      <point x="507" y="-146"/>
      <point x="526" y="-62" type="curve" smooth="yes"/>
      <point x="545" y="20" type="line"/>
    </contour>
  </outline>
</glyph>
<glyph name="Tbar" format="2">
  <advance width="622"/>
  <unicode hex="0166"/>
  <outline>
    <component base="T"/>
    <contour>
      <point x="226" y="383" type="line"/>
      <point x="205" y="289" type="line"/>
      <point x="564" y="289" type="line"/>
      <point x="586" y="383" type="line"/>
    </contour>
  </outline>
</glyph>
<glyph name="uni0259" format="2">
  <advance width="554"/>
  <unicode hex="0259"/>
  <anchor x="430" y="580" name="top"/>
  <outline>
    <contour>
      <point x="95" y="158" type="curve" smooth="yes"/>
      <point x="95" y="62"/>
      <point x="145" y="-14"/>
      <point x="271" y="-14" type="curve" smooth="yes"/>
      <point x="465" y="-14"/>
      <point x="584" y="167"/>
      <point x="584" y="346" type="curve" smooth="yes"/>
      <point x="584" y="451"/>
      <point x="528" y="514"/>
      <point x="392" y="514" type="curve" smooth="yes"/>
      <point x="264" y="514"/>
      <point x="175" y="458"/>
      <point x="138" y="345" type="curve"/>
      <point x="274" y="345" type="line"/>
      <point x="291" y="393"/>
      <point x="327" y="428"/>
      <point x="380" y="428" type="curve" smooth="yes"/>
      <point x="433" y="428"/>
      <point x="449" y="395"/>
      <point x="449" y="356" type="curve" smooth="yes"/>
      <point x="449" y="332"/>
      <point x="443" y="302"/>
      <point x="437" y="278" type="curve"/>
      <point x="116" y="278" type="line"/>
      <point x="105" y="238"/>
      <point x="95" y="200"/>
    </contour>
    <contour>
      <point x="230" y="147" type="curve" smooth="yes"/>
      <point x="230" y="161"/>
      <point x="232" y="176"/>
      <point x="236" y="193" type="curve"/>
      <point x="417" y="193" type="line"/>
      <point x="402" y="126"/>
      <point x="365" y="71"/>
      <point x="300" y="71" type="curve" smooth="yes"/>
      <point x="250" y="71"/>
      <point x="230" y="103"/>
    </contour>
  </outline>
</glyph>
<glyph name="uni025A" format="2">
  <advance width="766"/>
  <unicode hex="025A"/>
  <outline>
    <contour>
      <point x="95" y="158" type="line"/>
      <point x="95" y="62"/>
      <point x="145" y="-14"/>
      <point x="271" y="-14" type="curve" smooth="yes"/>
      <point x="466" y="-14"/>
      <point x="584" y="167"/>
      <point x="584" y="346" type="curve" smooth="yes"/>
      <point x="584" y="451"/>
      <point x="528" y="514"/>
      <point x="392" y="514" type="curve" smooth="yes"/>
      <point x="264" y="514"/>
      <point x="175" y="458"/>
      <point x="138" y="345" type="curve"/>
      <point x="274" y="345" type="line"/>
      <point x="291" y="393"/>
      <point x="327" y="428"/>
      <point x="381" y="428" type="curve" smooth="yes"/>
      <point x="434" y="428"/>
      <point x="449" y="395"/>
      <point x="449" y="356" type="curve" smooth="yes"/>
      <point x="449" y="270"/>
      <point x="411" y="71"/>
      <point x="300" y="71" type="curve" smooth="yes"/>
      <point x="250" y="71"/>
      <point x="230" y="103"/>
      <point x="230" y="147" type="curve"/>
    </contour>
    <contour>
      <point x="230" y="147" type="line"/>
      <point x="639" y="347" type="line"/>
      <point x="635" y="334" type="line" smooth="yes"/>
      <point x="626" y="305"/>
      <point x="622" y="295"/>
      <point x="622" y="279" type="curve" smooth="yes"/>
      <point x="622" y="225"/>
      <point x="656" y="199"/>
      <point x="721" y="199" type="curve" smooth="yes"/>
      <point x="793" y="199"/>
      <point x="829" y="244"/>
      <point x="847" y="319" type="curve"/>
      <point x="787" y="319" type="line"/>
      <point x="779" y="285"/>
      <point x="761" y="253"/>
      <point x="730" y="253" type="curve" smooth="yes"/>
      <point x="708" y="253"/>
      <point x="697" y="263"/>
      <point x="697" y="283" type="curve" smooth="yes"/>
      <point x="697" y="289"/>
      <point x="698" y="296"/>
      <point x="700" y="303" type="curve" smooth="yes"/>
      <point x="748" y="473" type="line"/>
      <point x="95" y="158" type="line"/>
    </contour>
  </outline>
</glyph>
<glyph name="uni025F" format="2">
  <advance width="317"/>
  <unicode hex="025F"/>
  <outline>
    <contour>
      <point x="93" y="-66" type="line" smooth="yes"/>
      <point x="82" y="-117"/>
      <point x="63" y="-140"/>
      <point x="14" y="-140" type="curve" smooth="yes"/>
      <point x="-6" y="-140"/>
      <point x="-24" y="-136"/>
      <point x="-41" y="-126" type="curve"/>
      <point x="-61" y="-211" type="line"/>
      <point x="-27" y="-223"/>
      <point x="5" y="-229"/>
      <point x="42" y="-229" type="curve" smooth="yes"/>
      <point x="144" y="-229"/>
      <point x="208" y="-183"/>
      <point x="232" y="-69" type="curve" smooth="yes"/>
      <point x="354" y="500" type="line"/>
      <point x="220" y="500" type="line"/>
    </contour>
    <contour>
      <point x="83" y="287" type="line"/>
      <point x="64" y="202" type="line"/>
      <point x="395" y="202" type="line"/>
      <point x="414" y="287" type="line"/>
    </contour>
  </outline>
</glyph>
<glyph name="uni0262" format="2">
  <advance width="564"/>
  <unicode hex="0262"/>
  <outline>
    <contour>
      <point x="642" y="357" type="line"/>
      <point x="642" y="443"/>
      <point x="566" y="514"/>
      <point x="424" y="514" type="curve" smooth="yes"/>
      <point x="223" y="514"/>
      <point x="91" y="359"/>
      <point x="91" y="181" type="curve" smooth="yes"/>
      <point x="91" y="50"/>
      <point x="162" y="-14"/>
      <point x="310" y="-14" type="curve" smooth="yes"/>
      <point x="371" y="-14"/>
      <point x="491" y="-3"/>
      <point x="561" y="20" type="curve"/>
      <point x="618" y="273" type="line"/>
      <point x="368" y="273" type="line"/>
      <point x="351" y="199" type="line"/>
      <point x="472" y="199" type="line"/>
      <point x="446" y="88" type="line"/>
      <point x="404" y="77"/>
      <point x="362" y="72"/>
      <point x="316" y="72" type="curve" smooth="yes"/>
      <point x="271" y="72"/>
      <point x="227" y="107"/>
      <point x="227" y="192" type="curve" smooth="yes"/>
      <point x="227" y="339"/>
      <point x="312" y="428"/>
      <point x="404" y="428" type="curve" smooth="yes"/>
      <point x="469" y="428"/>
      <point x="506" y="397"/>
      <point x="506" y="357" type="curve"/>
    </contour>
  </outline>
</glyph>
<glyph name="uni0265" format="2">
  <advance width="573"/>
  <unicode hex="0265"/>
  <outline>
    <contour>
      <point x="72" y="106" type="curve" smooth="yes"/>
      <point x="72" y="31"/>
      <point x="117" y="-14"/>
      <point x="207" y="-14" type="curve" smooth="yes"/>
      <point x="287" y="-14"/>
      <point x="333" y="4"/>
      <point x="388" y="67" type="curve"/>
      <point x="327" y="-200" type="line"/>
      <point x="462" y="-200" type="line"/>
      <point x="623" y="500" type="line"/>
      <point x="488" y="500" type="line"/>
      <point x="424" y="221" type="line" smooth="yes"/>
      <point x="408" y="151"/>
      <point x="366" y="67"/>
      <point x="282" y="67" type="curve" smooth="yes"/>
      <point x="237" y="67"/>
      <point x="215" y="92"/>
      <point x="215" y="141" type="curve" smooth="yes"/>
      <point x="215" y="158"/>
      <point x="218" y="178"/>
      <point x="223" y="201" type="curve" smooth="yes"/>
      <point x="292" y="500" type="line"/>
      <point x="157" y="500" type="line"/>
      <point x="79" y="161" type="line" smooth="yes"/>
      <point x="74" y="141"/>
      <point x="72" y="123"/>
    </contour>
  </outline>
</glyph>
<glyph name="uni0268" format="2">
  <advance width="293"/>
  <unicode hex="0268"/>
  <outline>
    <component base="i"/>
    <contour>
      <point x="70" y="318" type="line"/>
      <point x="49" y="222" type="line"/>
      <point x="319" y="222" type="line"/>
      <point x="340" y="318" type="line"/>
    </contour>
  </outline>
</glyph>
<glyph name="uni026A" format="2">
  <advance width="342"/>
  <unicode hex="026A"/>
  <outline>
    <component base="dotlessi" xOffset="42"/>
    <contour>
      <point x="397" y="400" type="line"/>
      <point x="420" y="500" type="line"/>
      <point x="152" y="500" type="line"/>
      <point x="129" y="400" type="line"/>
    </contour>
    <contour>
      <point x="58" y="94" type="line"/>
      <point x="36" y="0" type="line"/>
      <point x="305" y="0" type="line"/>
      <point x="327" y="94" type="line"/>
    </contour>
  </outline>
  <guideline angle="90" x="54" y="0"/>
</glyph>
<glyph name="uni026C" format="2">
  <advance width="522"/>
  <unicode hex="026C"/>
  <outline>
    <component base="l" xOffset="159"/>
    <contour>
      <point x="539" y="406" type="line"/>
      <point x="491" y="382"/>
      <point x="419" y="355"/>
      <point x="373" y="355" type="curve" smooth="yes"/>
      <point x="275" y="355"/>
      <point x="236" y="376"/>
      <point x="236" y="417" type="curve" smooth="yes"/>
      <point x="236" y="442"/>
      <point x="251" y="460"/>
      <point x="286" y="460" type="curve" smooth="yes"/>
      <point x="302" y="460"/>
      <point x="341" y="456"/>
      <point x="359" y="448" type="curve"/>
      <point x="369" y="520" type="line"/>
      <point x="347" y="533"/>
      <point x="292" y="545"/>
      <point x="246" y="545" type="curve" smooth="yes"/>
      <point x="159" y="545"/>
      <point x="106" y="485"/>
      <point x="106" y="401" type="curve" smooth="yes"/>
      <point x="106" y="299"/>
      <point x="241" y="266"/>
      <point x="343" y="266" type="curve" smooth="yes"/>
      <point x="419" y="266"/>
      <point x="502" y="300"/>
      <point x="567" y="334" type="curve"/>
    </contour>
  </outline>
</glyph>
<glyph name="uni026D" format="2">
  <advance width="282"/>
  <unicode hex="026D"/>
  <outline>
    <component base="l"/>
    <contour>
      <point x="65" y="0" type="line"/>
      <point x="50" y="-67"/>
      <point x="47" y="-85"/>
      <point x="47" y="-103" type="curve" smooth="yes"/>
      <point x="47" y="-157"/>
      <point x="76" y="-197"/>
      <point x="141" y="-197" type="curve" smooth="yes"/>
      <point x="260" y="-197" type="line"/>
      <point x="282" y="-94" type="line"/>
      <point x="230" y="-94" type="line" smooth="yes"/>
      <point x="202" y="-94"/>
      <point x="188" y="-81"/>
      <point x="188" y="-58" type="curve" smooth="yes"/>
      <point x="188" y="-49"/>
      <point x="190" y="-40"/>
      <point x="200" y="0" type="curve"/>
    </contour>
  </outline>
</glyph>
<glyph name="uni0270" format="2">
  <advance width="911"/>
  <unicode hex="0270"/>
  <outline>
    <component base="uni026F"/>
    <contour>
      <point x="801" y="-200" type="line"/>
      <point x="962" y="500" type="line"/>
      <point x="827" y="500" type="line"/>
      <point x="666" y="-200" type="line"/>
    </contour>
  </outline>
</glyph>
<glyph name="uni0271" format="2">
  <advance width="922"/>
  <unicode hex="0271"/>
  <outline>
    <component base="m"/>
    <contour>
      <point x="503" y="-144" type="line"/>
      <point x="527" y="-178"/>
      <point x="586" y="-200"/>
      <point x="653" y="-200" type="curve" smooth="yes"/>
      <point x="759" y="-200"/>
      <point x="823" y="-146"/>
      <point x="842" y="-62" type="curve" smooth="yes"/>
      <point x="856" y="0" type="line"/>
      <point x="721" y="0" type="line"/>
      <point x="714" y="-30" type="line" smooth="yes"/>
      <point x="704" y="-73"/>
      <point x="685" y="-91"/>
      <point x="651" y="-91" type="curve" smooth="yes"/>
      <point x="626" y="-91"/>
      <point x="610" y="-81"/>
      <point x="600" y="-68" type="curve"/>
    </contour>
  </outline>
</glyph>
<glyph name="uni0276" format="2">
  <advance width="797"/>
  <unicode hex="0276"/>
  <outline>
    <contour>
      <point x="403" y="0" type="line"/>
      <point x="518" y="500" type="line"/>
      <point x="843" y="500" type="line"/>
      <point x="819" y="385" type="line"/>
      <point x="608" y="385" type="line"/>
      <point x="592" y="314" type="line"/>
      <point x="784" y="314" type="line"/>
      <point x="760" y="199" type="line"/>
      <point x="568" y="199" type="line"/>
      <point x="549" y="115" type="line"/>
      <point x="753" y="115" type="line"/>
      <point x="728" y="0" type="line"/>
    </contour>
    <contour>
      <point x="102" y="184" type="curve" smooth="yes"/>
      <point x="102" y="379"/>
      <point x="226" y="510"/>
      <point x="432" y="510" type="curve" smooth="yes"/>
      <point x="460" y="510"/>
      <point x="486" y="507"/>
      <point x="510" y="500" type="curve"/>
      <point x="569" y="500" type="line"/>
      <point x="565" y="387" type="line"/>
      <point x="513" y="387" type="line"/>
      <point x="482" y="406"/>
      <point x="449" y="416"/>
      <point x="408" y="416" type="curve" smooth="yes"/>
      <point x="297" y="416"/>
      <point x="241" y="309"/>
      <point x="241" y="204" type="curve" smooth="yes"/>
      <point x="241" y="125"/>
      <point x="268" y="84"/>
      <point x="336" y="84" type="curve" smooth="yes"/>
      <point x="379" y="84"/>
      <point x="417" y="95"/>
      <point x="449" y="117" type="curve"/>
      <point x="493" y="117" type="line"/>
      <point x="479" y="0" type="line"/>
      <point x="386" y="0" type="line"/>
      <point x="361" y="-6"/>
      <point x="336" y="-10"/>
      <point x="310" y="-10" type="curve" smooth="yes"/>
      <point x="174" y="-10"/>
      <point x="102" y="67"/>
    </contour>
  </outline>
</glyph>
<glyph name="uni0278" format="2">
  <advance width="677"/>
  <unicode hex="0278"/>
  <outline>
    <contour>
      <point x="575" y="723" type="line"/>
      <point x="441" y="723" type="line"/>
      <point x="228" y="-199" type="line"/>
      <point x="362" y="-199" type="line"/>
    </contour>
    <contour>
      <point x="310" y="92" type="line"/>
      <point x="266" y="92"/>
      <point x="238" y="128"/>
      <point x="238" y="177" type="curve" smooth="yes"/>
      <point x="238" y="326"/>
      <point x="291" y="409"/>
      <point x="386" y="409" type="curve"/>
      <point x="410" y="512" type="line"/>
      <point x="225" y="512"/>
      <point x="103" y="382"/>
      <point x="103" y="185" type="curve" smooth="yes"/>
      <point x="103" y="64"/>
      <point x="175" y="-12"/>
      <point x="287" y="-12" type="curve"/>
    </contour>
    <contour>
      <point x="488" y="408" type="line"/>
      <point x="532" y="408"/>
      <point x="560" y="372"/>
      <point x="560" y="323" type="curve" smooth="yes"/>
      <point x="560" y="174"/>
      <point x="507" y="91"/>
      <point x="412" y="91" type="curve"/>
      <point x="388" y="-12" type="line"/>
      <point x="573" y="-12"/>
      <point x="695" y="118"/>
      <point x="695" y="315" type="curve" smooth="yes"/>
      <point x="695" y="436"/>
      <point x="623" y="512"/>
      <point x="511" y="512" type="curve"/>
    </contour>
  </outline>
  <guideline angle="0" x="0" y="512"/>
  <guideline angle="0" x="0" y="-12"/>
  <guideline angle="77" x="279" y="0"/>
  <guideline angle="77" x="336" y="0"/>
</glyph>
<glyph name="uni027A" format="2">
  <advance width="417"/>
  <unicode hex="027A"/>
  <outline>
    <component base="uni0279"/>
    <contour>
      <point x="345" y="0" type="line"/>
      <point x="511" y="722" type="line"/>
      <point x="376" y="722" type="line"/>
      <point x="210" y="0" type="line"/>
    </contour>
  </outline>
</glyph>
<glyph name="uni027C" format="2">
  <advance width="408"/>
  <unicode hex="027C"/>
  <outline>
    <component base="r"/>
    <contour>
      <point x="162" y="-198" type="line"/>
      <point x="208" y="0" type="line"/>
      <point x="73" y="0" type="line"/>
      <point x="27" y="-198" type="line"/>
    </contour>
  </outline>
</glyph>
<glyph name="uni027D" format="2">
  <advance width="408"/>
  <unicode hex="027D"/>
  <outline>
    <component base="r"/>
    <contour>
      <point x="73" y="0" type="line"/>
      <point x="58" y="-67"/>
      <point x="55" y="-85"/>
      <point x="55" y="-103" type="curve" smooth="yes"/>
      <point x="55" y="-157"/>
      <point x="84" y="-197"/>
      <point x="149" y="-197" type="curve" smooth="yes"/>
      <point x="268" y="-197" type="line"/>
      <point x="290" y="-94" type="line"/>
      <point x="238" y="-94" type="line" smooth="yes"/>
      <point x="210" y="-94"/>
      <point x="196" y="-81"/>
      <point x="196" y="-58" type="curve" smooth="yes"/>
      <point x="196" y="-49"/>
      <point x="198" y="-40"/>
      <point x="208" y="0" type="curve"/>
    </contour>
  </outline>
</glyph>
<glyph name="uni0283" format="2">
  <advance width="387"/>
  <unicode hex="0283"/>
  <outline>
    <contour>
      <point x="309" y="267" type="line"/>
      <point x="312" y="300" type="line" smooth="yes"/>
      <point x="325" y="441"/>
      <point x="334" y="528"/>
      <point x="342" y="565" type="curve" smooth="yes"/>
      <point x="352" y="611"/>
      <point x="370" y="629"/>
      <point x="403" y="629" type="curve" smooth="yes"/>
      <point x="419" y="629"/>
      <point x="434" y="625"/>
      <point x="446" y="617" type="curve"/>
      <point x="509" y="723" type="line"/>
      <point x="497" y="732"/>
      <point x="476" y="736"/>
      <point x="443" y="736" type="curve" smooth="yes"/>
      <point x="328" y="736"/>
      <point x="244" y="684"/>
      <point x="216" y="562" type="curve" smooth="yes"/>
      <point x="208" y="527"/>
      <point x="191" y="426"/>
      <point x="180" y="300" type="curve" smooth="yes"/>
      <point x="177" y="267" type="line"/>
    </contour>
    <contour>
      <point x="177" y="269" type="line"/>
      <point x="174" y="236" type="line" smooth="yes"/>
      <point x="161" y="95"/>
      <point x="152" y="8"/>
      <point x="144" y="-29" type="curve" smooth="yes"/>
      <point x="134" y="-75"/>
      <point x="116" y="-93"/>
      <point x="83" y="-93" type="curve" smooth="yes"/>
      <point x="67" y="-93"/>
      <point x="52" y="-89"/>
      <point x="40" y="-81" type="curve"/>
      <point x="-23" y="-187" type="line"/>
      <point x="-11" y="-196"/>
      <point x="10" y="-200"/>
      <point x="43" y="-200" type="curve" smooth="yes"/>
      <point x="158" y="-200"/>
      <point x="242" y="-148"/>
      <point x="270" y="-26" type="curve" smooth="yes"/>
      <point x="278" y="9"/>
      <point x="295" y="110"/>
      <point x="306" y="236" type="curve" smooth="yes"/>
      <point x="309" y="269" type="line"/>
    </contour>
  </outline>
  <guideline angle="0" x="0" y="267"/>
</glyph>
<glyph name="uni028A" format="2">
  <advance width="593"/>
  <unicode hex="028A"/>
  <outline>
    <contour>
      <point x="667" y="414" type="line"/>
      <point x="687" y="500" type="line"/>
      <point x="454" y="500" type="line"/>
      <point x="467" y="475"/>
      <point x="468" y="409"/>
      <point x="468" y="362" type="curve" smooth="yes"/>
      <point x="468" y="228"/>
      <point x="421" y="72"/>
      <point x="313" y="72" type="curve" smooth="yes"/>
      <point x="273" y="72"/>
      <point x="236" y="93"/>
      <point x="236" y="169" type="curve" smooth="yes"/>
      <point x="236" y="273"/>
      <point x="303" y="431"/>
      <point x="370" y="500" type="curve"/>
      <point x="129" y="500" type="line"/>
      <point x="109" y="414" type="line"/>
      <point x="163" y="414" type="line" smooth="yes"/>
      <point x="174" y="414"/>
      <point x="183" y="413"/>
      <point x="182" y="402" type="curve" smooth="yes"/>
      <point x="181" y="393"/>
      <point x="174" y="386"/>
      <point x="167" y="380" type="curve"/>
      <point x="104" y="323"/>
      <point x="75" y="242"/>
      <point x="75" y="173" type="curve" smooth="yes"/>
      <point x="75" y="54"/>
      <point x="162" y="-14"/>
      <point x="297" y="-14" type="curve" smooth="yes"/>
      <point x="487" y="-14"/>
      <point x="612" y="121"/>
      <point x="612" y="289" type="curve" smooth="yes"/>
      <point x="612" y="334"/>
      <point x="603" y="362"/>
      <point x="592" y="379" type="curve"/>
      <point x="588" y="384"/>
      <point x="585" y="390"/>
      <point x="585" y="396" type="curve" smooth="yes"/>
      <point x="585" y="411"/>
      <point x="598" y="414"/>
      <point x="611" y="414" type="curve" smooth="yes"/>
    </contour>
  </outline>
</glyph>
<glyph name="uni028B" format="2">
  <advance width="580"/>
  <unicode hex="028B"/>
  <outline>
    <contour>
      <point x="599" y="353" type="curve" smooth="yes"/>
      <point x="599" y="423"/>
      <point x="583" y="486"/>
      <point x="557" y="514" type="curve"/>
      <point x="426" y="456" type="line"/>
      <point x="449" y="404"/>
      <point x="460" y="351"/>
      <point x="460" y="292" type="curve" smooth="yes"/>
      <point x="460" y="177"/>
      <point x="419" y="52"/>
      <point x="317" y="52" type="curve" smooth="yes"/>
      <point x="272" y="52"/>
      <point x="230" y="77"/>
      <point x="230" y="132" type="curve" smooth="yes"/>
      <point x="230" y="140"/>
      <point x="231" y="164"/>
      <point x="233" y="171" type="curve"/>
      <point x="310" y="500" type="line"/>
      <point x="175" y="500" type="line"/>
      <point x="99" y="173" type="line" smooth="yes"/>
      <point x="94" y="153"/>
      <point x="91" y="133"/>
      <point x="91" y="116" type="curve" smooth="yes"/>
      <point x="91" y="36"/>
      <point x="160" y="-12"/>
      <point x="269" y="-12" type="curve" smooth="yes"/>
      <point x="475" y="-12"/>
      <point x="599" y="155"/>
    </contour>
  </outline>
</glyph>
<glyph name="uni028F" format="2">
  <advance width="554"/>
  <unicode hex="028F"/>
  <outline>
    <contour>
      <point x="283" y="139" type="line"/>
      <point x="347" y="139" type="line"/>
      <point x="665" y="500" type="line"/>
      <point x="527" y="500" type="line"/>
      <point x="318" y="257" type="line"/>
      <point x="382" y="257" type="line"/>
      <point x="285" y="500" type="line"/>
      <point x="130" y="500" type="line"/>
    </contour>
    <contour>
      <point x="216" y="0" type="line"/>
      <point x="350" y="0" type="line"/>
      <point x="399" y="214" type="line"/>
      <point x="265" y="214" type="line"/>
    </contour>
  </outline>
</glyph>
<glyph name="uni0291" format="2">
  <advance width="595"/>
  <unicode hex="0291"/>
  <outline>
    <contour>
      <point x="296" y="0" type="line"/>
      <point x="316" y="85" type="line"/>
      <point x="208" y="85" type="line"/>
      <point x="544" y="395" type="line"/>
      <point x="568" y="500" type="line"/>
      <point x="168" y="500" type="line"/>
      <point x="149" y="415" type="line"/>
      <point x="409" y="415" type="line"/>
      <point x="72" y="105" type="line"/>
      <point x="48" y="0" type="line"/>
    </contour>
    <contour>
      <point x="207" y="-125" type="line"/>
      <point x="281" y="-125" type="line"/>
      <point x="332" y="0" type="line"/>
      <point x="339" y="-2"/>
      <point x="368" y="-2"/>
      <point x="380" y="-2" type="curve" smooth="yes"/>
      <point x="489" y="-2"/>
      <point x="593" y="51"/>
      <point x="593" y="145" type="curve" smooth="yes"/>
      <point x="593" y="201"/>
      <point x="556" y="221"/>
      <point x="505" y="221" type="curve" smooth="yes"/>
      <point x="421" y="221"/>
      <point x="328" y="169"/>
      <point x="280" y="53" type="curve" smooth="yes"/>
    </contour>
    <contour>
      <point x="401" y="83" type="curve" smooth="yes"/>
      <point x="393" y="83"/>
      <point x="379" y="83"/>
      <point x="370" y="85" type="curve"/>
      <point x="396" y="144"/>
      <point x="430" y="168"/>
      <point x="479" y="168" type="curve" smooth="yes"/>
      <point x="501" y="168"/>
      <point x="509" y="160"/>
      <point x="509" y="142" type="curve" smooth="yes"/>
      <point x="509" y="87"/>
      <point x="441" y="83"/>
    </contour>
  </outline>
</glyph>
<glyph name="uni0294" format="2">
  <advance width="489"/>
  <unicode hex="0294"/>
  <outline>
    <contour>
      <point x="227" y="412" type="line"/>
      <point x="132" y="0" type="line"/>
      <point x="266" y="0" type="line"/>
      <point x="361" y="412" type="line"/>
    </contour>
    <contour>
      <point x="344" y="369" type="line"/>
      <point x="489" y="381"/>
      <point x="585" y="460"/>
      <point x="585" y="575" type="curve" smooth="yes"/>
      <point x="585" y="685"/>
      <point x="497" y="736"/>
      <point x="378" y="736" type="curve" smooth="yes"/>
      <point x="336" y="736"/>
      <point x="288" y="730"/>
      <point x="230" y="718" type="curve"/>
      <point x="209" y="622" type="line"/>
      <point x="247" y="632"/>
      <point x="291" y="637"/>
      <point x="322" y="637" type="curve" smooth="yes"/>
      <point x="404" y="637"/>
      <point x="432" y="602"/>
      <point x="432" y="553" type="curve" smooth="yes"/>
      <point x="432" y="478"/>
      <point x="366" y="412"/>
      <point x="227" y="412" type="curve"/>
    </contour>
  </outline>
</glyph>
<glyph name="uni0295" format="2">
  <advance width="489"/>
  <unicode hex="0295"/>
  <outline>
    <contour>
      <point x="318" y="412" type="line"/>
      <point x="225" y="0" type="line"/>
      <point x="358" y="0" type="line"/>
      <point x="453" y="412" type="line"/>
    </contour>
    <contour>
      <point x="453" y="412" type="line"/>
      <point x="350" y="421"/>
      <point x="316" y="460"/>
      <point x="316" y="530" type="curve" smooth="yes"/>
      <point x="316" y="586"/>
      <point x="359" y="637"/>
      <point x="467" y="637" type="curve" smooth="yes"/>
      <point x="501" y="637"/>
      <point x="535" y="632"/>
      <point x="569" y="622" type="curve"/>
      <point x="590" y="718" type="line"/>
      <point x="540" y="730"/>
      <point x="494" y="736"/>
      <point x="460" y="736" type="curve" smooth="yes"/>
      <point x="262" y="736"/>
      <point x="161" y="654"/>
      <point x="161" y="525" type="curve" smooth="yes"/>
      <point x="161" y="454"/>
      <point x="218" y="401"/>
      <point x="317" y="369" type="curve"/>
    </contour>
  </outline>
</glyph>
<glyph name="uni02A2" format="2">
  <advance width="489"/>
  <unicode hex="02A2"/>
  <outline>
    <component base="uni0295"/>
    <contour>
      <point x="501" y="210" type="line"/>
      <point x="520" y="291" type="line"/>
      <point x="130" y="291" type="line"/>
      <point x="111" y="210" type="line"/>
    </contour>
  </outline>
</glyph>
<glyph name="uni02B0" format="2">
  <advance width="462"/>
  <unicode hex="02B0"/>
  <outline>
    <contour>
      <point x="148" y="351" type="line"/>
      <point x="242" y="351" type="line"/>
      <point x="288" y="553" type="line" smooth="yes"/>
      <point x="298" y="598"/>
      <point x="343" y="654"/>
      <point x="391" y="654" type="curve" smooth="yes"/>
      <point x="418" y="654"/>
      <point x="433" y="637"/>
      <point x="433" y="600" type="curve" smooth="yes"/>
      <point x="433" y="590"/>
      <point x="432" y="577"/>
      <point x="428" y="561" type="curve" smooth="yes"/>
      <point x="379" y="351" type="line"/>
      <point x="474" y="351" type="line"/>
      <point x="528" y="589" type="line" smooth="yes"/>
      <point x="531" y="603"/>
      <point x="533" y="615"/>
      <point x="533" y="628" type="curve" smooth="yes"/>
      <point x="533" y="680"/>
      <point x="502" y="711"/>
      <point x="439" y="711" type="curve" smooth="yes"/>
      <point x="385" y="711"/>
      <point x="349" y="703"/>
      <point x="314" y="661" type="curve"/>
      <point x="358" y="856" type="line"/>
      <point x="264" y="856" type="line"/>
    </contour>
  </outline>
</glyph>
<glyph name="uni02B7" format="2">
  <advance width="632"/>
  <unicode hex="02B7"/>
  <outline>
    <contour>
      <point x="757" y="698" type="line"/>
      <point x="660" y="698" type="line"/>
      <point x="541" y="468" type="line"/>
      <point x="521" y="698" type="line"/>
      <point x="412" y="698" type="line"/>
      <point x="286" y="468" type="line"/>
      <point x="273" y="698" type="line"/>
      <point x="176" y="698" type="line"/>
      <point x="202" y="350" type="line"/>
      <point x="314" y="350" type="line"/>
      <point x="443" y="594" type="line"/>
      <point x="459" y="350" type="line"/>
      <point x="571" y="350" type="line"/>
    </contour>
  </outline>
</glyph>
<glyph name="uni02BC" format="2">
  <advance width="409"/>
  <unicode hex="02BC"/>
  <outline>
    <contour>
      <point x="447" y="722" type="line"/>
      <point x="297" y="722" type="line"/>
      <point x="256" y="432" type="line"/>
      <point x="354" y="432" type="line"/>
    </contour>
  </outline>
</glyph>
<glyph name="circumflex" format="2">
  <advance width="319"/>
  <unicode hex="02C6"/>
  <outline>
    <contour>
      <point x="459" y="600" type="line"/>
      <point x="410" y="780" type="line"/>
      <point x="270" y="780" type="line"/>
      <point x="139" y="600" type="line"/>
      <point x="209" y="600" type="line"/>
      <point x="324" y="710" type="line"/>
      <point x="389" y="600" type="line"/>
    </contour>
  </outline>
</glyph>
<glyph name="uni02D1" format="2">
  <advance width="372"/>
  <unicode hex="02D1"/>
  <outline>
    <contour>
      <point x="394" y="500" type="line"/>
      <point x="205" y="500" type="line"/>
      <point x="219" y="285" type="line"/>
      <point x="284" y="285" type="line"/>
    </contour>
  </outline>
</glyph>
<glyph name="ogonek" format="2">
  <advance width="207"/>
  <unicode hex="02DB"/>
  <outline>
    <contour>
      <point x="-45" y="-162" type="curve" smooth="yes"/>
      <point x="-45" y="-205"/>
      <point x="-11" y="-230"/>
      <point x="35" y="-230" type="curve"/>
      <point x="115" y="-226" type="line"/>
      <point x="136" y="-136" type="line"/>
      <point x="97" y="-140" type="line"/>
      <point x="77" y="-139"/>
      <point x="69" y="-131"/>
      <point x="69" y="-117" type="curve" smooth="yes"/>
      <point x="69" y="-84"/>
      <point x="118" y="-22"/>
      <point x="148" y="-1" type="curve"/>
      <point x="70" y="-1" type="line"/>
      <point x="46" y="-20" type="line" smooth="yes"/>
      <point x="5" y="-52"/>
      <point x="-45" y="-109"/>
    </contour>
  </outline>
</glyph>
<glyph name="tilde" format="2">
  <advance width="319"/>
  <unicode hex="02DC"/>
  <outline>
    <contour>
      <point x="316" y="718" type="line"/>
      <point x="307" y="723" type="line" smooth="yes"/>
      <point x="292" y="731"/>
      <point x="281" y="734"/>
      <point x="262" y="734" type="curve" smooth="yes"/>
      <point x="208" y="734"/>
      <point x="168" y="697"/>
      <point x="142" y="620" type="curve"/>
      <point x="194" y="620" type="line"/>
      <point x="210" y="649"/>
      <point x="224" y="660"/>
      <point x="248" y="660" type="curve" smooth="yes"/>
      <point x="269" y="660"/>
      <point x="290" y="648"/>
      <point x="308" y="637" type="curve" smooth="yes"/>
      <point x="316" y="632" type="line"/>
    </contour>
    <contour>
      <point x="316" y="632" type="line"/>
      <point x="325" y="627" type="line" smooth="yes"/>
      <point x="340" y="619"/>
      <point x="351" y="616"/>
      <point x="370" y="616" type="curve" smooth="yes"/>
      <point x="424" y="616"/>
      <point x="464" y="653"/>
      <point x="490" y="730" type="curve"/>
      <point x="438" y="730" type="line"/>
      <point x="422" y="701"/>
      <point x="408" y="690"/>
      <point x="384" y="690" type="curve" smooth="yes"/>
      <point x="363" y="690"/>
      <point x="342" y="702"/>
      <point x="324" y="713" type="curve" smooth="yes"/>
      <point x="316" y="718" type="line"/>
    </contour>
  </outline>
</glyph>
<glyph name="uni02DE" format="2">
  <advance width="180"/>
  <unicode hex="02DE"/>
  <outline>
    <contour>
      <point x="-54" y="287" type="line"/>
      <point x="35" y="326" type="line"/>
      <point x="31" y="313" type="line" smooth="yes"/>
      <point x="22" y="284"/>
      <point x="18" y="274"/>
      <point x="18" y="258" type="curve" smooth="yes"/>
      <point x="18" y="204"/>
      <point x="52" y="178"/>
      <point x="117" y="178" type="curve" smooth="yes"/>
      <point x="189" y="178"/>
      <point x="225" y="223"/>
      <point x="243" y="298" type="curve"/>
      <point x="183" y="298" type="line"/>
      <point x="175" y="264"/>
      <point x="157" y="232"/>
      <point x="126" y="232" type="curve" smooth="yes"/>
      <point x="104" y="232"/>
      <point x="93" y="242"/>
      <point x="93" y="262" type="curve" smooth="yes"/>
      <point x="93" y="268"/>
      <point x="94" y="275"/>
      <point x="96" y="282" type="curve" smooth="yes"/>
      <point x="144" y="452" type="line"/>
      <point x="-57" y="361" type="line"/>
    </contour>
  </outline>
</glyph>
<glyph name="uni02E5" format="2">
  <advance width="357"/>
  <unicode hex="02E5"/>
  <outline>
    <contour>
      <point x="357" y="0" type="line"/>
      <point x="524" y="722" type="line"/>
      <point x="188" y="722" type="line"/>
      <point x="164" y="618" type="line"/>
      <point x="366" y="618" type="line"/>
      <point x="223" y="0" type="line"/>
    </contour>
  </outline>
</glyph>
<glyph name="uni02E6" format="2">
  <advance width="383"/>
  <unicode hex="02E6"/>
  <outline>
    <contour>
      <point x="377" y="561" type="line"/>
      <point x="150" y="561" type="line"/>
      <point x="126" y="457" type="line"/>
      <point x="353" y="457" type="line"/>
    </contour>
    <contour>
      <point x="223" y="0" type="line"/>
      <point x="357" y="0" type="line"/>
      <point x="524" y="722" type="line"/>
      <point x="390" y="722" type="line"/>
    </contour>
  </outline>
</glyph>
<glyph name="uni02E9" format="2">
  <advance width="381"/>
  <unicode hex="02E9"/>
  <outline>
    <contour>
      <point x="358" y="0" type="line"/>
      <point x="525" y="722" type="line"/>
      <point x="390" y="722" type="line"/>
      <point x="238" y="104" type="line"/>
      <point x="45" y="104" type="line"/>
      <point x="21" y="0" type="line"/>
    </contour>
  </outline>
</glyph>
<glyph name="gravecomb" format="2">
  <unicode hex="0300"/>
  <anchor x="-115" y="600" name="_top"/>
  <outline>
    <contour>
      <point x="-81" y="600" type="line"/>
      <point x="-131" y="780" type="line"/>
      <point x="-261" y="780" type="line"/>
      <point x="-151" y="600" type="line"/>
    </contour>
  </outline>
</glyph>
<glyph name="uni0302" format="2">
  <advance width="1"/>
  <unicode hex="0302"/>
  <anchor x="-169" y="600" name="_top"/>
  <outline>
    <contour>
      <point x="-15" y="600" type="line"/>
      <point x="-64" y="780" type="line"/>
      <point x="-204" y="780" type="line"/>
      <point x="-335" y="600" type="line"/>
      <point x="-265" y="600" type="line"/>
      <point x="-150" y="710" type="line"/>
      <point x="-85" y="600" type="line"/>
    </contour>
  </outline>
</glyph>
<glyph name="uni030B" format="2">
  <unicode hex="030B"/>
  <anchor x="-160" y="600" name="_top"/>
  <outline>
    <contour>
      <point x="165" y="811" type="line"/>
      <point x="15" y="811" type="line"/>
      <point x="-110" y="600" type="line"/>
      <point x="-12" y="600" type="line"/>
    </contour>
    <contour>
      <point x="-65" y="814" type="line"/>
      <point x="-215" y="814" type="line"/>
      <point x="-340" y="600" type="line"/>
      <point x="-242" y="600" type="line"/>
    </contour>
  </outline>
</glyph>
<glyph name="uni030D" format="2">
  <advance width="-356"/>
  <unicode hex="030D"/>
  <outline>
    <contour>
      <point x="-212" y="571" type="line"/>
      <point x="-114" y="571" type="line"/>
      <point x="-66" y="781" type="line"/>
      <point x="-164" y="781" type="line"/>
    </contour>
  </outline>
</glyph>
<glyph name="uni030F" format="2">
  <advance width="1"/>
  <unicode hex="030F"/>
  <anchor x="-114" y="600" name="_top"/>
  <outline>
    <contour>
      <point x="-158" y="600" type="line"/>
      <point x="-189" y="771" type="line"/>
      <point x="-309" y="771" type="line"/>
      <point x="-238" y="600" type="line"/>
    </contour>
    <contour>
      <point x="12" y="600" type="line"/>
      <point x="-19" y="771" type="line"/>
      <point x="-139" y="771" type="line"/>
      <point x="-68" y="600" type="line"/>
    </contour>
  </outline>
</glyph>
<glyph name="commaabovecomb" format="2">
  <unicode hex="0313"/>
  <outline>
    <contour>
      <point x="-51" y="570" type="line"/>
      <point x="58" y="780" type="line"/>
      <point x="101" y="780" type="line"/>
      <point x="101" y="670" type="line"/>
      <point x="14" y="570" type="line"/>
    </contour>
    <contour>
      <point x="-21" y="780" type="line"/>
      <point x="89" y="780" type="line"/>
      <point x="89" y="660" type="line"/>
      <point x="-21" y="660" type="line"/>
    </contour>
  </outline>
</glyph>
<glyph name="uni0318" format="2">
  <unicode hex="0318"/>
  <outline>
    <contour>
      <point x="-109" y="-315" type="line"/>
      <point x="-44" y="-30" type="line"/>
      <point x="-150" y="-30" type="line"/>
      <point x="-172" y="-125" type="line"/>
      <point x="-274" y="-125" type="line"/>
      <point x="-296" y="-221" type="line"/>
      <point x="-193" y="-221" type="line"/>
      <point x="-215" y="-315" type="line"/>
    </contour>
  </outline>
</glyph>
<glyph name="uni0326" format="2">
  <unicode hex="0326"/>
  <anchor x="-301" y="-60" name="_bottom"/>
  <outline>
    <contour>
      <point x="-200" y="-57" type="line"/>
      <point x="-350" y="-57" type="line"/>
      <point x="-458" y="-307" type="line"/>
      <point x="-378" y="-307" type="line"/>
    </contour>
  </outline>
</glyph>
<glyph name="uni032A" format="2">
  <unicode hex="032A"/>
  <outline>
    <contour>
      <point x="-370" y="-150" type="line"/>
      <point x="-190" y="-150" type="line"/>
      <point x="-184" y="-70" type="line"/>
      <point x="-364" y="-70" type="line"/>
    </contour>
    <contour>
      <point x="-408" y="-70" type="line"/>
      <point x="-444" y="-230" type="line"/>
      <point x="-364" y="-230" type="line"/>
      <point x="-329" y="-70" type="line"/>
    </contour>
    <contour>
      <point x="-211" y="-70" type="line"/>
      <point x="-247" y="-230" type="line"/>
      <point x="-167" y="-230" type="line"/>
      <point x="-132" y="-70" type="line"/>
    </contour>
  </outline>
</glyph>
<glyph name="macronbelowcomb" format="2">
  <unicode hex="0331"/>
  <anchor x="-264" y="-50" name="_bottom"/>
  <outline>
    <contour>
      <point x="-61" y="-129" type="line"/>
      <point x="-45" y="-50" type="line"/>
      <point x="-465" y="-50" type="line"/>
      <point x="-482" y="-129" type="line"/>
    </contour>
  </outline>
</glyph>
<glyph name="uni033B" format="2">
  <unicode hex="033B"/>
  <outline>
    <contour>
      <point x="-454" y="-320" type="line"/>
      <point x="-274" y="-320" type="line"/>
      <point x="-268" y="-240" type="line"/>
      <point x="-448" y="-240" type="line"/>
    </contour>
    <contour>
      <point x="-418" y="-140" type="line"/>
      <point x="-238" y="-140" type="line"/>
      <point x="-232" y="-60" type="line"/>
      <point x="-412" y="-60" type="line"/>
    </contour>
    <contour>
      <point x="-455" y="-60" type="line"/>
      <point x="-515" y="-320" type="line"/>
      <point x="-436" y="-320" type="line"/>
      <point x="-376" y="-60" type="line"/>
    </contour>
    <contour>
      <point x="-255" y="-60" type="line"/>
      <point x="-315" y="-320" type="line"/>
      <point x="-236" y="-320" type="line"/>
      <point x="-176" y="-60" type="line"/>
    </contour>
  </outline>
</glyph>
<glyph name="tonos" format="2">
  <advance width="221"/>
  <unicode hex="0384"/>
  <anchor x="345" y="722" name="_tonosUP"/>
  <anchor x="151" y="512" name="_top"/>
  <outline>
    <contour>
      <point x="345" y="722" type="line"/>
      <point x="205" y="722" type="line"/>
      <point x="96" y="512" type="line"/>
      <point x="202" y="512" type="line"/>
    </contour>
  </outline>
</glyph>
<glyph name="Theta" format="2">
  <advance width="754"/>
  <unicode hex="0398"/>
  <outline>
    <component base="O"/>
    <contour>
      <point x="611" y="312" type="line"/>
      <point x="638" y="434" type="line"/>
      <point x="358" y="434" type="line"/>
      <point x="331" y="312" type="line"/>
    </contour>
  </outline>
</glyph>
<glyph name="Xi" format="2">
  <advance width="669"/>
  <unicode hex="039E"/>
  <outline>
    <contour>
      <point x="743" y="581" type="line"/>
      <point x="776" y="722" type="line"/>
      <point x="228" y="722" type="line"/>
      <point x="195" y="581" type="line"/>
    </contour>
    <contour>
      <point x="578" y="300" type="line"/>
      <point x="611" y="441" type="line"/>
      <point x="264" y="441" type="line"/>
      <point x="231" y="300" type="line"/>
    </contour>
    <contour>
      <point x="609" y="0" type="line"/>
      <point x="642" y="141" type="line"/>
      <point x="94" y="141" type="line"/>
      <point x="61" y="0" type="line"/>
    </contour>
  </outline>
</glyph>
<glyph name="Upsilon" format="2">
  <advance width="653"/>
  <unicode hex="03A5"/>
  <outline>
    <contour>
      <point x="811" y="722" type="line"/>
      <point x="645" y="722" type="line"/>
      <point x="424" y="419" type="line"/>
      <point x="343" y="722" type="line"/>
      <point x="177" y="722" type="line"/>
      <point x="315" y="273" type="line"/>
      <point x="252" y="0" type="line"/>
      <point x="402" y="0" type="line"/>
      <point x="465" y="273" type="line"/>
    </contour>
  </outline>
</glyph>
<glyph name="Omega" format="2">
  <advance width="800"/>
  <unicode hex="03A9"/>
  <outline>
    <contour>
      <point x="795" y="125" type="line"/>
      <point x="577" y="125" type="line"/>
      <point x="584" y="145" type="line"/>
      <point x="741" y="196"/>
      <point x="860" y="327"/>
      <point x="860" y="494" type="curve" smooth="yes"/>
      <point x="860" y="628"/>
      <point x="753" y="724"/>
      <point x="574" y="724" type="curve" smooth="yes"/>
      <point x="348" y="724"/>
      <point x="136" y="572"/>
      <point x="136" y="351" type="curve" smooth="yes"/>
      <point x="136" y="260"/>
      <point x="191" y="180"/>
      <point x="286" y="145" type="curve"/>
      <point x="283" y="125" type="line"/>
      <point x="64" y="125" type="line"/>
      <point x="36" y="0" type="line"/>
      <point x="354" y="0" type="line"/>
      <point x="390" y="189" type="line"/>
      <point x="307" y="228"/>
      <point x="287" y="291"/>
      <point x="287" y="334" type="curve" smooth="yes"/>
      <point x="287" y="499"/>
      <point x="396" y="587"/>
      <point x="529" y="587" type="curve" smooth="yes"/>
      <point x="638" y="587"/>
      <point x="692" y="528"/>
      <point x="692" y="462" type="curve" smooth="yes"/>
      <point x="692" y="363"/>
      <point x="640" y="239"/>
      <point x="493" y="189" type="curve"/>
      <point x="449" y="0" type="line"/>
      <point x="767" y="0" type="line"/>
    </contour>
  </outline>
</glyph>
<glyph name="beta" format="2">
  <advance width="676"/>
  <unicode hex="03B2"/>
  <outline>
    <contour>
      <point x="477" y="633" type="curve" smooth="yes"/>
      <point x="535" y="633"/>
      <point x="577" y="600"/>
      <point x="577" y="546" type="curve" smooth="yes"/>
      <point x="577" y="479"/>
      <point x="510" y="393"/>
      <point x="450" y="393" type="curve" smooth="yes"/>
      <point x="390" y="393" type="line"/>
      <point x="369" y="299" type="line"/>
      <point x="443" y="299" type="line" smooth="yes"/>
      <point x="496" y="299"/>
      <point x="532" y="261"/>
      <point x="532" y="220" type="curve" smooth="yes"/>
      <point x="532" y="127"/>
      <point x="483" y="83"/>
      <point x="389" y="83" type="curve" smooth="yes"/>
      <point x="317" y="83"/>
      <point x="268" y="127"/>
      <point x="268" y="194" type="curve" smooth="yes"/>
      <point x="268" y="204"/>
      <point x="269" y="213"/>
      <point x="270" y="219" type="curve"/>
      <point x="335" y="500" type="line" smooth="yes"/>
      <point x="354" y="582"/>
      <point x="404" y="633"/>
    </contour>
    <contour>
      <point x="500" y="734" type="curve" smooth="yes"/>
      <point x="333" y="734"/>
      <point x="237" y="661"/>
      <point x="208" y="534" type="curve" smooth="yes"/>
      <point x="39" y="-200" type="line"/>
      <point x="174" y="-200" type="line"/>
      <point x="241" y="99" type="line"/>
      <point x="157" y="99" type="line"/>
      <point x="182" y="28"/>
      <point x="296" y="-14"/>
      <point x="375" y="-14" type="curve" smooth="yes"/>
      <point x="534" y="-14"/>
      <point x="686" y="87"/>
      <point x="686" y="234" type="curve" smooth="yes"/>
      <point x="686" y="308"/>
      <point x="646" y="361"/>
      <point x="567" y="373" type="curve"/>
      <point x="563" y="356" type="line"/>
      <point x="669" y="388"/>
      <point x="719" y="485"/>
      <point x="719" y="560" type="curve" smooth="yes"/>
      <point x="719" y="660"/>
      <point x="630" y="734"/>
    </contour>
  </outline>
</glyph>
<glyph name="gamma" format="2">
  <advance width="551"/>
  <unicode hex="03B3"/>
  <outline>
    <contour>
      <point x="290" y="-75" type="line"/>
      <point x="662" y="500" type="line"/>
      <point x="511" y="500" type="line"/>
      <point x="266" y="104" type="line"/>
      <point x="341" y="104" type="line"/>
      <point x="266" y="465" type="line" smooth="yes"/>
      <point x="260" y="494"/>
      <point x="225" y="514"/>
      <point x="186" y="514" type="curve" smooth="yes"/>
      <point x="173" y="514"/>
      <point x="132" y="512"/>
      <point x="114" y="509" type="curve"/>
      <point x="91" y="408" type="line"/>
      <point x="97" y="409"/>
      <point x="104" y="409"/>
      <point x="110" y="409" type="curve"/>
      <point x="133" y="407"/>
      <point x="148" y="399"/>
      <point x="152" y="380" type="curve" smooth="yes"/>
      <point x="246" y="-75" type="line"/>
    </contour>
    <contour>
      <point x="227" y="48" type="line"/>
      <point x="171" y="-200" type="line"/>
      <point x="305" y="-200" type="line"/>
      <point x="359" y="42" type="line"/>
    </contour>
  </outline>
</glyph>
<glyph name="delta" format="2">
  <advance width="608"/>
  <unicode hex="03B4"/>
  <outline>
    <contour>
      <point x="425" y="441" type="line"/>
      <point x="467" y="412"/>
      <point x="496" y="348"/>
      <point x="496" y="283" type="curve" smooth="yes"/>
      <point x="496" y="188"/>
      <point x="435" y="85"/>
      <point x="323" y="85" type="curve" smooth="yes"/>
      <point x="259" y="85"/>
      <point x="212" y="118"/>
      <point x="212" y="194" type="curve" smooth="yes"/>
      <point x="212" y="360"/>
      <point x="361" y="424"/>
      <point x="512" y="424" type="curve"/>
    </contour>
    <contour>
      <point x="198" y="633" type="line"/>
      <point x="362" y="500" type="line"/>
      <point x="195" y="471"/>
      <point x="68" y="370"/>
      <point x="68" y="187" type="curve" smooth="yes"/>
      <point x="68" y="74"/>
      <point x="148" y="-14"/>
      <point x="286" y="-14" type="curve" smooth="yes"/>
      <point x="485" y="-14"/>
      <point x="640" y="128"/>
      <point x="640" y="305" type="curve" smooth="yes"/>
      <point x="640" y="377"/>
      <point x="614" y="450"/>
      <point x="536" y="517" type="curve" smooth="yes"/>
      <point x="399" y="635" type="line"/>
      <point x="637" y="635" type="line"/>
      <point x="660" y="734" type="line"/>
      <point x="221" y="734" type="line"/>
    </contour>
  </outline>
</glyph>
<glyph name="epsilon" format="2">
  <advance width="551"/>
  <unicode hex="03B5"/>
  <anchor x="383" y="580" name="top"/>
  <outline>
    <contour>
      <point x="146" y="349" type="curve" smooth="yes"/>
      <point x="146" y="314"/>
      <point x="173" y="278"/>
      <point x="209" y="264" type="curve"/>
      <point x="112" y="237"/>
      <point x="60" y="179"/>
      <point x="60" y="98" type="curve" smooth="yes"/>
      <point x="60" y="26"/>
      <point x="130" y="-14"/>
      <point x="249" y="-14" type="curve" smooth="yes"/>
      <point x="406" y="-14"/>
      <point x="522" y="56"/>
      <point x="542" y="158" type="curve"/>
      <point x="435" y="158" type="line"/>
      <point x="421" y="100"/>
      <point x="372" y="72"/>
      <point x="283" y="72" type="curve" smooth="yes"/>
      <point x="232" y="72"/>
      <point x="201" y="97"/>
      <point x="201" y="137" type="curve" smooth="yes"/>
      <point x="201" y="182"/>
      <point x="240" y="214"/>
      <point x="302" y="219" type="curve" smooth="yes"/>
      <point x="381" y="225" type="line"/>
      <point x="397" y="294" type="line"/>
      <point x="326" y="300" type="line" smooth="yes"/>
      <point x="297" y="302"/>
      <point x="279" y="325"/>
      <point x="279" y="357" type="curve" smooth="yes"/>
      <point x="279" y="402"/>
      <point x="313" y="428"/>
      <point x="374" y="428" type="curve" smooth="yes"/>
      <point x="431" y="428"/>
      <point x="464" y="405"/>
      <point x="464" y="362" type="curve" smooth="yes"/>
      <point x="464" y="355"/>
      <point x="463" y="350"/>
      <point x="460" y="339" type="curve"/>
      <point x="562" y="339" type="line"/>
      <point x="565" y="350"/>
      <point x="566" y="362"/>
      <point x="566" y="372" type="curve" smooth="yes"/>
      <point x="566" y="457"/>
      <point x="489" y="514"/>
      <point x="367" y="514" type="curve" smooth="yes"/>
      <point x="237" y="514"/>
      <point x="146" y="449"/>
    </contour>
  </outline>
</glyph>
<glyph name="eta" format="2">
  <advance width="608"/>
  <unicode hex="03B7"/>
  <anchor x="305" y="-60" name="bottom"/>
  <anchor x="429" y="580" name="top"/>
  <outline>
    <contour>
      <point x="73" y="0" type="line"/>
      <point x="208" y="0" type="line"/>
      <point x="272" y="279" type="line" smooth="yes"/>
      <point x="288" y="349"/>
      <point x="330" y="433"/>
      <point x="414" y="433" type="curve" smooth="yes"/>
      <point x="459" y="433"/>
      <point x="481" y="408"/>
      <point x="481" y="359" type="curve" smooth="yes"/>
      <point x="481" y="342"/>
      <point x="478" y="322"/>
      <point x="473" y="299" type="curve" smooth="yes"/>
      <point x="404" y="0" type="line"/>
      <point x="539" y="0" type="line"/>
      <point x="617" y="339" type="line" smooth="yes"/>
      <point x="622" y="359"/>
      <point x="624" y="377"/>
      <point x="624" y="394" type="curve" smooth="yes"/>
      <point x="624" y="469"/>
      <point x="579" y="514"/>
      <point x="489" y="514" type="curve" smooth="yes"/>
      <point x="419" y="514"/>
      <point x="363" y="498"/>
      <point x="308" y="435" type="curve"/>
      <point x="162" y="388" type="line"/>
    </contour>
    <contour>
      <point x="404" y="0" type="line"/>
      <point x="358" y="-200" type="line"/>
      <point x="493" y="-200" type="line"/>
      <point x="539" y="0" type="line"/>
    </contour>
    <contour>
      <point x="308" y="435" type="line"/>
      <point x="310" y="443"/>
      <point x="310" y="453"/>
      <point x="310" y="454" type="curve"/>
      <point x="310" y="493"/>
      <point x="271" y="514"/>
      <point x="219" y="514" type="curve" smooth="yes"/>
      <point x="202" y="514"/>
      <point x="166" y="512"/>
      <point x="147" y="506" type="curve"/>
      <point x="126" y="415" type="line"/>
      <point x="132" y="416"/>
      <point x="141" y="416"/>
      <point x="144" y="416" type="curve"/>
      <point x="146" y="416" type="line"/>
      <point x="154" y="416"/>
      <point x="162" y="409"/>
      <point x="162" y="388" type="curve"/>
    </contour>
  </outline>
</glyph>
<glyph name="kappa" format="2">
  <advance width="599"/>
  <unicode hex="03BA"/>
  <outline>
    <contour>
      <point x="330" y="500" type="line"/>
      <point x="196" y="500" type="line"/>
      <point x="81" y="0" type="line"/>
      <point x="215" y="0" type="line"/>
    </contour>
    <contour>
      <point x="306" y="273" type="line"/>
      <point x="427" y="0" type="line"/>
      <point x="571" y="0" type="line"/>
      <point x="422" y="332" type="line"/>
    </contour>
    <contour>
      <point x="236" y="124" type="line"/>
      <point x="692" y="500" type="line"/>
      <point x="505" y="500" type="line"/>
      <point x="275" y="310" type="line"/>
    </contour>
  </outline>
</glyph>
<glyph name="lambda" format="2">
  <advance width="551"/>
  <unicode hex="03BB"/>
  <outline>
    <contour>
      <point x="395" y="78" type="line" smooth="yes"/>
      <point x="403" y="31"/>
      <point x="413" y="-14"/>
      <point x="476" y="-14" type="curve" smooth="yes"/>
      <point x="510" y="-14"/>
      <point x="546" y="-9"/>
      <point x="565" y="-6" type="curve"/>
      <point x="594" y="122" type="line"/>
      <point x="550" y="122"/>
      <point x="520" y="127"/>
      <point x="517" y="145" type="curve" smooth="yes"/>
      <point x="433" y="648" type="line" smooth="yes"/>
      <point x="423" y="707"/>
      <point x="372" y="736"/>
      <point x="303" y="736" type="curve" smooth="yes"/>
      <point x="278" y="736"/>
      <point x="264" y="735"/>
      <point x="239" y="732" type="curve"/>
      <point x="207" y="600" type="line"/>
      <point x="221" y="602"/>
      <point x="259" y="603"/>
      <point x="268" y="603" type="curve" smooth="yes"/>
      <point x="297" y="603"/>
      <point x="309" y="592"/>
      <point x="313" y="569" type="curve" smooth="yes"/>
    </contour>
    <contour>
      <point x="339" y="507" type="line"/>
      <point x="19" y="0" type="line"/>
      <point x="175" y="0" type="line"/>
      <point x="421" y="397" type="line"/>
    </contour>
  </outline>
</glyph>
<glyph name="mu" format="2">
  <advance width="660"/>
  <unicode hex="03BC"/>
  <outline>
    <contour>
      <point x="19" y="-200" type="line"/>
      <point x="154" y="-200" type="line"/>
      <point x="205" y="23" type="line"/>
      <point x="232" y="-1"/>
      <point x="260" y="-14"/>
      <point x="291" y="-14" type="curve" smooth="yes"/>
      <point x="337" y="-14"/>
      <point x="381" y="13"/>
      <point x="420" y="66" type="curve"/>
      <point x="444" y="5"/>
      <point x="482" y="-14"/>
      <point x="563" y="-14" type="curve" smooth="yes"/>
      <point x="588" y="-14"/>
      <point x="615" y="-5"/>
      <point x="643" y="10" type="curve"/>
      <point x="663" y="94" type="line"/>
      <point x="645" y="84"/>
      <point x="624" y="76"/>
      <point x="603" y="76" type="curve" smooth="yes"/>
      <point x="573" y="76"/>
      <point x="562" y="94"/>
      <point x="562" y="121" type="curve" smooth="yes"/>
      <point x="562" y="130"/>
      <point x="563" y="140"/>
      <point x="566" y="151" type="curve"/>
      <point x="646" y="500" type="line"/>
      <point x="511" y="500" type="line"/>
      <point x="445" y="211" type="line" smooth="yes"/>
      <point x="427" y="134"/>
      <point x="382" y="76"/>
      <point x="305" y="76" type="curve" smooth="yes"/>
      <point x="257" y="76"/>
      <point x="237" y="99"/>
      <point x="237" y="140" type="curve" smooth="yes"/>
      <point x="237" y="155"/>
      <point x="240" y="171"/>
      <point x="244" y="190" type="curve" smooth="yes"/>
      <point x="315" y="500" type="line"/>
      <point x="180" y="500" type="line"/>
    </contour>
  </outline>
</glyph>
<glyph name="xi" format="2">
  <advance width="546"/>
  <unicode hex="03BE"/>
  <outline>
    <contour>
      <point x="194" y="623" type="line"/>
      <point x="319" y="623" type="line"/>
      <point x="319" y="638" type="line"/>
      <point x="226" y="604"/>
      <point x="188" y="568"/>
      <point x="188" y="513" type="curve" smooth="yes"/>
      <point x="188" y="449"/>
      <point x="239" y="404"/>
      <point x="305" y="388" type="curve"/>
      <point x="307" y="404" type="line"/>
      <point x="158" y="374"/>
      <point x="74" y="297"/>
      <point x="74" y="179" type="curve" smooth="yes"/>
      <point x="74" y="69"/>
      <point x="148" y="-5"/>
      <point x="252" y="-5" type="curve" smooth="yes"/>
      <point x="358" y="-5" type="line" smooth="yes"/>
      <point x="372" y="-5"/>
      <point x="379" y="-14"/>
      <point x="379" y="-30" type="curve" smooth="yes"/>
      <point x="379" y="-51"/>
      <point x="367" y="-80"/>
      <point x="360" y="-93" type="curve" smooth="yes"/>
      <point x="300" y="-200" type="line"/>
      <point x="444" y="-200" type="line"/>
      <point x="512" y="-77" type="line" smooth="yes"/>
      <point x="523" y="-57"/>
      <point x="532" y="-22"/>
      <point x="532" y="1" type="curve" smooth="yes"/>
      <point x="532" y="42"/>
      <point x="507" y="99"/>
      <point x="424" y="99" type="curve" smooth="yes"/>
      <point x="337" y="99" type="line" smooth="yes"/>
      <point x="277" y="99"/>
      <point x="228" y="118"/>
      <point x="228" y="189" type="curve" smooth="yes"/>
      <point x="228" y="282"/>
      <point x="312" y="337"/>
      <point x="428" y="337" type="curve" smooth="yes"/>
      <point x="540" y="337" type="line"/>
      <point x="561" y="436" type="line"/>
      <point x="475" y="436" type="line" smooth="yes"/>
      <point x="414" y="436"/>
      <point x="342" y="437"/>
      <point x="342" y="516" type="curve" smooth="yes"/>
      <point x="342" y="595"/>
      <point x="414" y="611"/>
      <point x="491" y="627" type="curve"/>
      <point x="408" y="618" type="line"/>
      <point x="633" y="618" type="line"/>
      <point x="656" y="722" type="line"/>
      <point x="217" y="722" type="line"/>
    </contour>
  </outline>
</glyph>
<glyph name="rho" format="2">
  <advance width="612"/>
  <unicode hex="03C1"/>
  <outline>
    <contour>
      <point x="19" y="-200" type="line"/>
      <point x="154" y="-200" type="line"/>
      <point x="210" y="46" type="line"/>
      <point x="242" y="0"/>
      <point x="281" y="-14"/>
      <point x="345" y="-14" type="curve" smooth="yes"/>
      <point x="532" y="-14"/>
      <point x="636" y="181"/>
      <point x="636" y="348" type="curve" smooth="yes"/>
      <point x="636" y="443"/>
      <point x="560" y="514"/>
      <point x="431" y="514" type="curve" smooth="yes"/>
      <point x="290" y="514"/>
      <point x="164" y="429"/>
      <point x="127" y="270" type="curve" smooth="yes"/>
    </contour>
    <contour>
      <point x="249" y="173" type="curve" smooth="yes"/>
      <point x="249" y="265"/>
      <point x="305" y="424"/>
      <point x="419" y="424" type="curve" smooth="yes"/>
      <point x="481" y="424"/>
      <point x="503" y="376"/>
      <point x="503" y="320" type="curve" smooth="yes"/>
      <point x="503" y="225"/>
      <point x="440" y="71"/>
      <point x="329" y="71" type="curve" smooth="yes"/>
      <point x="266" y="71"/>
      <point x="249" y="121"/>
    </contour>
  </outline>
</glyph>
<glyph name="sigma1" format="2">
  <advance width="551"/>
  <unicode hex="03C2"/>
  <outline>
    <contour>
      <point x="84" y="208" type="curve" smooth="yes"/>
      <point x="84" y="123"/>
      <point x="138" y="59"/>
      <point x="202" y="39" type="curve" smooth="yes"/>
      <point x="351" y="-7" type="line" smooth="yes"/>
      <point x="366" y="-12"/>
      <point x="376" y="-21"/>
      <point x="376" y="-34" type="curve" smooth="yes"/>
      <point x="376" y="-49"/>
      <point x="364" y="-75"/>
      <point x="358" y="-85" type="curve" smooth="yes"/>
      <point x="293" y="-200" type="line"/>
      <point x="413" y="-200" type="line"/>
      <point x="478" y="-86" type="line" smooth="yes"/>
      <point x="495" y="-57"/>
      <point x="504" y="-27"/>
      <point x="504" y="-4" type="curve" smooth="yes"/>
      <point x="504" y="43"/>
      <point x="476" y="69"/>
      <point x="434" y="82" type="curve" smooth="yes"/>
      <point x="315" y="118" type="line" smooth="yes"/>
      <point x="262" y="134"/>
      <point x="226" y="166"/>
      <point x="226" y="232" type="curve" smooth="yes"/>
      <point x="226" y="338"/>
      <point x="280" y="410"/>
      <point x="369" y="410" type="curve" smooth="yes"/>
      <point x="431" y="410"/>
      <point x="475" y="387"/>
      <point x="477" y="338" type="curve"/>
      <point x="477" y="329"/>
      <point x="476" y="319"/>
      <point x="474" y="308" type="curve"/>
      <point x="591" y="308" type="line"/>
      <point x="595" y="327"/>
      <point x="596" y="345"/>
      <point x="596" y="357" type="curve" smooth="yes"/>
      <point x="596" y="453"/>
      <point x="513" y="514"/>
      <point x="386" y="514" type="curve" smooth="yes"/>
      <point x="202" y="514"/>
      <point x="84" y="393"/>
    </contour>
  </outline>
</glyph>
<glyph name="uni03D0" format="2">
  <advance width="608"/>
  <unicode hex="03D0"/>
  <outline>
    <contour>
      <point x="481" y="628" type="curve" smooth="yes"/>
      <point x="521" y="628"/>
      <point x="538" y="607"/>
      <point x="538" y="571" type="curve" smooth="yes"/>
      <point x="538" y="519"/>
      <point x="496" y="473"/>
      <point x="450" y="451" type="curve"/>
      <point x="438" y="454"/>
      <point x="434" y="455"/>
      <point x="416" y="455" type="curve" smooth="yes"/>
      <point x="357" y="455"/>
      <point x="325" y="445"/>
      <point x="280" y="412" type="curve"/>
      <point x="317" y="526"/>
      <point x="366" y="628"/>
    </contour>
    <contour>
      <point x="382" y="379" type="curve" smooth="yes"/>
      <point x="450" y="379"/>
      <point x="469" y="329"/>
      <point x="469" y="260" type="curve" smooth="yes"/>
      <point x="469" y="182"/>
      <point x="408" y="82"/>
      <point x="306" y="82" type="curve" smooth="yes"/>
      <point x="263" y="82"/>
      <point x="230" y="121"/>
      <point x="230" y="174" type="curve" smooth="yes"/>
      <point x="230" y="287"/>
      <point x="282" y="379"/>
    </contour>
    <contour>
      <point x="83" y="179" type="curve" smooth="yes"/>
      <point x="83" y="79"/>
      <point x="150" y="-12"/>
      <point x="298" y="-12" type="curve" smooth="yes"/>
      <point x="503" y="-12"/>
      <point x="616" y="126"/>
      <point x="616" y="268" type="curve" smooth="yes"/>
      <point x="616" y="337"/>
      <point x="591" y="396"/>
      <point x="552" y="425" type="curve"/>
      <point x="638" y="455"/>
      <point x="682" y="529"/>
      <point x="682" y="599" type="curve" smooth="yes"/>
      <point x="682" y="681"/>
      <point x="623" y="732"/>
      <point x="505" y="732" type="curve" smooth="yes"/>
      <point x="238" y="732"/>
      <point x="83" y="384"/>
    </contour>
  </outline>
</glyph>
<glyph name="theta1" format="2">
  <advance width="528"/>
  <unicode hex="03D1"/>
  <outline>
    <contour>
      <point x="316" y="77" type="curve" smooth="yes"/>
      <point x="259" y="77"/>
      <point x="236" y="103"/>
      <point x="236" y="156" type="curve" smooth="yes"/>
      <point x="236" y="167"/>
      <point x="237" y="175"/>
      <point x="239" y="182" type="curve"/>
      <point x="273" y="331" type="line"/>
      <point x="138" y="331" type="line"/>
      <point x="103" y="178" type="line"/>
      <point x="100" y="167"/>
      <point x="100" y="157"/>
      <point x="100" y="147" type="curve" smooth="yes"/>
      <point x="100" y="55"/>
      <point x="172" y="-21"/>
      <point x="297" y="-21" type="curve" smooth="yes"/>
      <point x="554" y="-21"/>
      <point x="652" y="302"/>
      <point x="652" y="497" type="curve" smooth="yes"/>
      <point x="652" y="628"/>
      <point x="583" y="732"/>
      <point x="412" y="732" type="curve" smooth="yes"/>
      <point x="267" y="732"/>
      <point x="206" y="657"/>
      <point x="206" y="571" type="curve" smooth="yes"/>
      <point x="206" y="408"/>
      <point x="422" y="323"/>
      <point x="552" y="316" type="curve"/>
      <point x="563" y="398" type="line"/>
      <point x="483" y="409"/>
      <point x="339" y="458"/>
      <point x="339" y="575" type="curve" smooth="yes"/>
      <point x="339" y="616"/>
      <point x="357" y="637"/>
      <point x="396" y="637" type="curve" smooth="yes"/>
      <point x="458" y="637"/>
      <point x="513" y="584"/>
      <point x="513" y="464" type="curve" smooth="yes"/>
      <point x="513" y="323"/>
      <point x="437" y="77"/>
    </contour>
  </outline>
</glyph>
<glyph name="Djecyr" format="2">
  <advance width="781"/>
  <unicode hex="0402"/>
  <outline>
    <component base="T"/>
    <contour>
      <point x="444" y="381" type="line"/>
      <point x="464" y="385"/>
      <point x="506" y="387"/>
      <point x="529" y="387" type="curve" smooth="yes"/>
      <point x="618" y="387"/>
      <point x="666" y="355"/>
      <point x="666" y="290" type="curve" smooth="yes"/>
      <point x="666" y="201"/>
      <point x="603" y="87"/>
      <point x="464" y="59" type="curve"/>
      <point x="464" y="-14" type="line"/>
      <point x="679" y="16"/>
      <point x="820" y="149"/>
      <point x="820" y="293" type="curve" smooth="yes"/>
      <point x="820" y="403"/>
      <point x="718" y="460"/>
      <point x="552" y="460" type="curve" smooth="yes"/>
      <point x="521" y="460"/>
      <point x="472" y="458"/>
      <point x="444" y="454" type="curve"/>
    </contour>
  </outline>
</glyph>
<glyph name="uni0404" format="2">
  <advance width="715"/>
  <unicode hex="0404"/>
  <outline>
    <contour>
      <point x="790" y="542" type="line"/>
      <point x="774" y="662"/>
      <point x="687" y="732"/>
      <point x="536" y="732" type="curve" smooth="yes"/>
      <point x="313" y="732"/>
      <point x="163" y="586"/>
      <point x="114" y="372" type="curve" smooth="yes"/>
      <point x="61" y="142"/>
      <point x="154" y="-14"/>
      <point x="365" y="-14" type="curve" smooth="yes"/>
      <point x="507" y="-14"/>
      <point x="633" y="79"/>
      <point x="714" y="194" type="curve"/>
      <point x="570" y="194" type="line"/>
      <point x="526" y="143"/>
      <point x="467" y="107"/>
      <point x="393" y="107" type="curve" smooth="yes"/>
      <point x="260" y="107"/>
      <point x="229" y="192"/>
      <point x="249" y="308" type="curve"/>
      <point x="522" y="308" type="line"/>
      <point x="550" y="428" type="line"/>
      <point x="277" y="428" type="line"/>
      <point x="300" y="503"/>
      <point x="366" y="614"/>
      <point x="510" y="614" type="curve" smooth="yes"/>
      <point x="579" y="614"/>
      <point x="625" y="590"/>
      <point x="649" y="542" type="curve"/>
    </contour>
  </outline>
</glyph>
<glyph name="Dzhecyr" format="2">
  <advance width="696"/>
  <unicode hex="040F"/>
  <outline>
    <component base="uni041F" xScale="-1" yScale="-1" xOffset="864" yOffset="722"/>
    <contour>
      <point x="246" y="-162" type="line"/>
      <point x="289" y="30" type="line"/>
      <point x="422" y="30" type="line"/>
      <point x="379" y="-162" type="line"/>
    </contour>
  </outline>
</glyph>
<glyph name="uni0414" format="2">
  <advance width="769"/>
  <unicode hex="0414"/>
  <outline>
    <contour>
      <point x="718" y="-162" type="line"/>
      <point x="781" y="120" type="line"/>
      <point x="692" y="120" type="line"/>
      <point x="833" y="722" type="line"/>
      <point x="311" y="722" type="line"/>
      <point x="280" y="585" type="line" smooth="yes"/>
      <point x="240" y="410"/>
      <point x="197" y="263"/>
      <point x="46" y="119" type="curve"/>
      <point x="-10" y="119" type="line"/>
      <point x="-73" y="-162" type="line"/>
      <point x="70" y="-162" type="line"/>
      <point x="107" y="0" type="line"/>
      <point x="611" y="0" type="line"/>
      <point x="574" y="-162" type="line"/>
    </contour>
    <contour>
      <point x="541" y="120" type="line"/>
      <point x="224" y="120" type="line"/>
      <point x="337" y="250"/>
      <point x="385" y="375"/>
      <point x="423" y="541" type="curve" smooth="yes"/>
      <point x="437" y="602" type="line"/>
      <point x="658" y="602" type="line"/>
    </contour>
  </outline>
</glyph>
<glyph name="uni0418" format="2">
  <advance width="683"/>
  <unicode hex="0418"/>
  <anchor x="500" y="800" name="top"/>
  <outline>
    <contour>
      <point x="47" y="0" type="line"/>
      <point x="214" y="0" type="line"/>
      <point x="602" y="505" type="line"/>
      <point x="485" y="0" type="line"/>
      <point x="625" y="0" type="line"/>
      <point x="792" y="722" type="line"/>
      <point x="619" y="722" type="line"/>
      <point x="237" y="218" type="line"/>
      <point x="354" y="722" type="line"/>
      <point x="214" y="722" type="line"/>
    </contour>
  </outline>
</glyph>
<glyph name="uni0419" format="2">
  <advance width="683"/>
  <unicode hex="0419"/>
  <outline>
    <contour>
      <point x="44" y="0" type="line"/>
      <point x="211" y="0" type="line"/>
      <point x="599" y="505" type="line"/>
      <point x="482" y="0" type="line"/>
      <point x="622" y="0" type="line"/>
      <point x="789" y="722" type="line"/>
      <point x="616" y="722" type="line"/>
      <point x="234" y="218" type="line"/>
      <point x="351" y="722" type="line"/>
      <point x="211" y="722" type="line"/>
    </contour>
    <contour>
      <point x="504" y="818" type="curve" smooth="yes"/>
      <point x="475" y="818"/>
      <point x="446" y="840"/>
      <point x="447" y="869" type="curve"/>
      <point x="361" y="869" type="line"/>
      <point x="353" y="787"/>
      <point x="401" y="720"/>
      <point x="481" y="720" type="curve" smooth="yes"/>
      <point x="561" y="720"/>
      <point x="641" y="788"/>
      <point x="671" y="869" type="curve"/>
      <point x="585" y="869" type="line"/>
      <point x="571" y="839"/>
      <point x="532" y="818"/>
    </contour>
  </outline>
</glyph>
<glyph name="uni0423" format="2">
  <advance width="666"/>
  <unicode hex="0423"/>
  <anchor x="513" y="800" name="top"/>
  <outline>
    <contour>
      <point x="812" y="722" type="line"/>
      <point x="661" y="722" type="line"/>
      <point x="438" y="371" type="line"/>
      <point x="337" y="722" type="line"/>
      <point x="177" y="722" type="line"/>
      <point x="344" y="230" type="line"/>
      <point x="295" y="157"/>
      <point x="254" y="105"/>
      <point x="196" y="105" type="curve" smooth="yes"/>
      <point x="171" y="105"/>
      <point x="122" y="135"/>
      <point x="102" y="166" type="curve"/>
      <point x="74" y="42" type="line"/>
      <point x="98" y="18"/>
      <point x="141" y="-9"/>
      <point x="187" y="-9" type="curve" smooth="yes"/>
      <point x="301" y="-9"/>
      <point x="370" y="65"/>
      <point x="428" y="151" type="curve" smooth="yes"/>
    </contour>
  </outline>
</glyph>
<glyph name="uni0426" format="2">
  <advance width="699"/>
  <unicode hex="0426"/>
  <outline>
    <contour>
      <point x="538" y="0" type="line"/>
      <point x="504" y="-147" type="line"/>
      <point x="638" y="-147" type="line"/>
      <point x="700" y="120" type="line"/>
      <point x="645" y="120" type="line"/>
      <point x="784" y="722" type="line"/>
      <point x="639" y="722" type="line"/>
      <point x="499" y="115" type="line"/>
      <point x="220" y="115" type="line"/>
      <point x="360" y="722" type="line"/>
      <point x="215" y="722" type="line"/>
      <point x="48" y="0" type="line"/>
    </contour>
  </outline>
</glyph>
<glyph name="uni042B" format="2">
  <advance width="824"/>
  <unicode hex="042B"/>
  <anchor x="590" y="800" name="top"/>
  <outline>
    <contour>
      <point x="346" y="311" type="line" smooth="yes"/>
      <point x="438" y="311"/>
      <point x="493" y="295"/>
      <point x="475" y="217" type="curve" smooth="yes"/>
      <point x="457" y="138"/>
      <point x="393" y="120"/>
      <point x="302" y="120" type="curve" smooth="yes"/>
      <point x="221" y="120" type="line"/>
      <point x="265" y="311" type="line"/>
    </contour>
    <contour>
      <point x="625" y="217" type="curve" smooth="yes"/>
      <point x="665" y="389"/>
      <point x="548" y="433"/>
      <point x="372" y="433" type="curve" smooth="yes"/>
      <point x="293" y="433" type="line"/>
      <point x="360" y="723" type="line"/>
      <point x="215" y="723" type="line"/>
      <point x="48" y="1" type="line"/>
      <point x="272" y="1" type="line" smooth="yes"/>
      <point x="444" y="1"/>
      <point x="584" y="38"/>
    </contour>
    <contour>
      <point x="764" y="0" type="line"/>
      <point x="931" y="722" type="line"/>
      <point x="786" y="722" type="line"/>
      <point x="619" y="0" type="line"/>
    </contour>
  </outline>
</glyph>
<glyph name="uni042C" format="2">
  <advance width="625"/>
  <unicode hex="042C"/>
  <outline>
    <contour>
      <point x="345" y="310" type="line" smooth="yes"/>
      <point x="437" y="310"/>
      <point x="492" y="294"/>
      <point x="474" y="216" type="curve" smooth="yes"/>
      <point x="456" y="137"/>
      <point x="392" y="119"/>
      <point x="301" y="119" type="curve" smooth="yes"/>
      <point x="219" y="119" type="line"/>
      <point x="263" y="310" type="line"/>
    </contour>
    <contour>
      <point x="624" y="216" type="curve" smooth="yes"/>
      <point x="664" y="388"/>
      <point x="547" y="432"/>
      <point x="370" y="432" type="curve" smooth="yes"/>
      <point x="291" y="432" type="line"/>
      <point x="358" y="722" type="line"/>
      <point x="213" y="722" type="line"/>
      <point x="46" y="0" type="line"/>
      <point x="270" y="0" type="line" smooth="yes"/>
      <point x="443" y="0"/>
      <point x="583" y="37"/>
    </contour>
  </outline>
</glyph>
<glyph name="uni042D" format="2">
  <advance width="715"/>
  <unicode hex="042D"/>
  <anchor x="540" y="800" name="top"/>
  <outline>
    <contour>
      <point x="155" y="541" type="curve"/>
      <point x="296" y="541" type="line"/>
      <point x="342" y="588"/>
      <point x="400" y="618"/>
      <point x="471" y="618" type="curve" smooth="yes"/>
      <point x="589" y="618"/>
      <point x="619" y="537"/>
      <point x="619" y="467" type="curve" smooth="yes"/>
      <point x="619" y="454"/>
      <point x="618" y="440"/>
      <point x="616" y="428" type="curve"/>
      <point x="343" y="428" type="line"/>
      <point x="315" y="308" type="line"/>
      <point x="588" y="308" type="line"/>
      <point x="554" y="192"/>
      <point x="485" y="106"/>
      <point x="360" y="106" type="curve" smooth="yes"/>
      <point x="278" y="106"/>
      <point x="235" y="142"/>
      <point x="215" y="194" type="curve"/>
      <point x="71" y="194" type="line"/>
      <point x="98" y="78"/>
      <point x="182" y="-14"/>
      <point x="324" y="-14" type="curve" smooth="yes"/>
      <point x="586" y="-14"/>
      <point x="769" y="237"/>
      <point x="769" y="483" type="curve" smooth="yes"/>
      <point x="769" y="635"/>
      <point x="680" y="738"/>
      <point x="501" y="738" type="curve" smooth="yes"/>
      <point x="346" y="738"/>
      <point x="227" y="661"/>
    </contour>
  </outline>
</glyph>
<glyph name="uni042E" format="2">
  <advance width="980"/>
  <unicode hex="042E"/>
  <outline>
    <contour>
      <point x="1010" y="372" type="curve" smooth="yes"/>
      <point x="1060" y="588"/>
      <point x="977" y="735"/>
      <point x="751" y="735" type="curve" smooth="yes"/>
      <point x="543" y="735"/>
      <point x="397" y="617"/>
      <point x="335" y="429" type="curve"/>
      <point x="293" y="429" type="line"/>
      <point x="361" y="722" type="line"/>
      <point x="216" y="722" type="line"/>
      <point x="49" y="0" type="line"/>
      <point x="194" y="0" type="line"/>
      <point x="265" y="309" type="line"/>
      <point x="307" y="309" type="line"/>
      <point x="290" y="149"/>
      <point x="355" y="-14"/>
      <point x="578" y="-14" type="curve" smooth="yes"/>
      <point x="790" y="-14"/>
      <point x="957" y="142"/>
    </contour>
    <contour>
      <point x="860" y="374" type="curve" smooth="yes"/>
      <point x="826" y="226"/>
      <point x="751" y="108"/>
      <point x="606" y="108" type="curve" smooth="yes"/>
      <point x="464" y="108"/>
      <point x="438" y="224"/>
      <point x="473" y="375" type="curve" smooth="yes"/>
      <point x="510" y="536"/>
      <point x="593" y="616"/>
      <point x="723" y="616" type="curve" smooth="yes"/>
      <point x="866" y="616"/>
      <point x="894" y="520"/>
    </contour>
  </outline>
</glyph>
<glyph name="uni0432" format="2">
  <advance width="599"/>
  <unicode hex="0432"/>
  <outline>
    <contour>
      <point x="87" y="164" type="curve" smooth="yes"/>
      <point x="87" y="64"/>
      <point x="147" y="-14"/>
      <point x="269" y="-14" type="curve" smooth="yes"/>
      <point x="431" y="-14"/>
      <point x="540" y="28"/>
      <point x="540" y="160" type="curve" smooth="yes"/>
      <point x="540" y="236"/>
      <point x="473" y="305"/>
      <point x="413" y="305" type="curve"/>
      <point x="432" y="284" type="line"/>
      <point x="419" y="260" type="line"/>
      <point x="525" y="276"/>
      <point x="568" y="321"/>
      <point x="568" y="394" type="curve" smooth="yes"/>
      <point x="568" y="477"/>
      <point x="502" y="514"/>
      <point x="392" y="514" type="curve" smooth="yes"/>
      <point x="204" y="514"/>
      <point x="87" y="382"/>
    </contour>
    <contour>
      <point x="244" y="291" type="curve"/>
      <point x="265" y="378"/>
      <point x="294" y="417"/>
      <point x="366" y="417" type="curve" smooth="yes"/>
      <point x="409" y="417"/>
      <point x="429" y="393"/>
      <point x="429" y="372" type="curve" smooth="yes"/>
      <point x="429" y="327"/>
      <point x="395" y="321"/>
      <point x="358" y="321" type="curve" smooth="yes"/>
      <point x="318" y="321"/>
      <point x="277" y="310"/>
    </contour>
    <contour>
      <point x="210" y="135" type="curve" smooth="yes"/>
      <point x="210" y="147"/>
      <point x="210" y="157"/>
      <point x="221" y="190" type="curve"/>
      <point x="255" y="209"/>
      <point x="292" y="226"/>
      <point x="329" y="226" type="curve" smooth="yes"/>
      <point x="386" y="226"/>
      <point x="410" y="211"/>
      <point x="410" y="161" type="curve" smooth="yes"/>
      <point x="410" y="117"/>
      <point x="356" y="83"/>
      <point x="293" y="83" type="curve" smooth="yes"/>
      <point x="248" y="83"/>
      <point x="210" y="98"/>
    </contour>
  </outline>
  <guideline angle="90" x="82" y="0"/>
  <guideline angle="90" x="182" y="0"/>
  <guideline angle="0" x="0" y="512"/>
  <guideline angle="0" x="0" y="235"/>
  <guideline angle="0" x="0" y="300"/>
  <guideline angle="90" x="532" y="0"/>
  <guideline angle="90" x="503" y="0"/>
</glyph>
<glyph name="uni043A" format="2">
  <advance width="540"/>
  <unicode hex="043A"/>
  <outline>
    <contour>
      <point x="60" y="0" type="line"/>
      <point x="195" y="0" type="line"/>
      <point x="311" y="500" type="line"/>
      <point x="176" y="500" type="line"/>
    </contour>
    <contour>
      <point x="366" y="0" type="line"/>
      <point x="530" y="0" type="line"/>
      <point x="400" y="284" type="line"/>
      <point x="629" y="500" type="line"/>
      <point x="467" y="500" type="line"/>
      <point x="246" y="283" type="line"/>
    </contour>
  </outline>
</glyph>
<glyph name="uni043B" format="2">
  <advance width="568"/>
  <unicode hex="043B"/>
  <outline>
    <contour>
      <point x="45" y="106" type="curve"/>
      <point x="21" y="0" type="line"/>
      <point x="30" y="-3"/>
      <point x="61" y="-7"/>
      <point x="72" y="-7" type="curve" smooth="yes"/>
      <point x="189" y="-7"/>
      <point x="250" y="25"/>
      <point x="324" y="327" type="curve" smooth="yes"/>
      <point x="343" y="405" type="line"/>
      <point x="481" y="405" type="line"/>
      <point x="394" y="0" type="line"/>
      <point x="529" y="0" type="line"/>
      <point x="636" y="500" type="line"/>
      <point x="229" y="500" type="line"/>
      <point x="200" y="372" type="line" smooth="yes"/>
      <point x="148" y="143"/>
      <point x="126" y="100"/>
      <point x="77" y="100" type="curve" smooth="yes"/>
      <point x="70" y="100"/>
      <point x="51" y="104"/>
    </contour>
  </outline>
</glyph>
<glyph name="uni043C" format="2">
  <advance width="740"/>
  <unicode hex="043C"/>
  <outline>
    <contour>
      <point x="680" y="0" type="line"/>
      <point x="795" y="500" type="line"/>
      <point x="625" y="500" type="line"/>
      <point x="421" y="175" type="line"/>
      <point x="367" y="500" type="line"/>
      <point x="175" y="500" type="line"/>
      <point x="60" y="0" type="line"/>
      <point x="180" y="0" type="line"/>
      <point x="253" y="316" type="line"/>
      <point x="304" y="0" type="line"/>
      <point x="437" y="0" type="line"/>
      <point x="634" y="319" type="line"/>
      <point x="560" y="0" type="line"/>
    </contour>
  </outline>
</glyph>
<glyph name="uni0447" format="2">
  <advance width="559"/>
  <unicode hex="0447"/>
  <anchor x="417" y="580" name="top"/>
  <outline>
    <contour>
      <point x="133" y="316" type="line" smooth="yes"/>
      <point x="127" y="292"/>
      <point x="125" y="270"/>
      <point x="125" y="253" type="curve" smooth="yes"/>
      <point x="125" y="167"/>
      <point x="178" y="127"/>
      <point x="277" y="127" type="curve" smooth="yes"/>
      <point x="334" y="127"/>
      <point x="380" y="140"/>
      <point x="417" y="167" type="curve"/>
      <point x="378" y="0" type="line"/>
      <point x="513" y="0" type="line"/>
      <point x="628" y="500" type="line"/>
      <point x="493" y="500" type="line"/>
      <point x="452" y="322" type="line" smooth="yes"/>
      <point x="439" y="264"/>
      <point x="384" y="220"/>
      <point x="328" y="220" type="curve" smooth="yes"/>
      <point x="284" y="220"/>
      <point x="264" y="248"/>
      <point x="264" y="286" type="curve" smooth="yes"/>
      <point x="264" y="295"/>
      <point x="265" y="304"/>
      <point x="267" y="314" type="curve"/>
      <point x="310" y="500" type="line"/>
      <point x="175" y="500" type="line"/>
    </contour>
  </outline>
</glyph>
<glyph name="uni0449" format="2">
  <advance width="918"/>
  <unicode hex="0449"/>
  <outline>
    <contour>
      <point x="103" y="171" type="line" smooth="yes"/>
      <point x="98" y="151"/>
      <point x="96" y="132"/>
      <point x="96" y="115" type="curve" smooth="yes"/>
      <point x="96" y="27"/>
      <point x="147" y="-14"/>
      <point x="238" y="-14" type="curve" smooth="yes"/>
      <point x="328" y="-14"/>
      <point x="378" y="25"/>
      <point x="420" y="79" type="curve"/>
      <point x="431" y="4"/>
      <point x="483" y="-14"/>
      <point x="547" y="-14" type="curve" smooth="yes"/>
      <point x="634" y="-14"/>
      <point x="696" y="4"/>
      <point x="738" y="42" type="curve"/>
      <point x="864" y="42" type="line"/>
      <point x="962" y="500" type="line"/>
      <point x="827" y="500" type="line"/>
      <point x="760" y="211" type="line" smooth="yes"/>
      <point x="746" y="149"/>
      <point x="691" y="71"/>
      <point x="624" y="71" type="curve" smooth="yes"/>
      <point x="579" y="71"/>
      <point x="559" y="105"/>
      <point x="559" y="147" type="curve" smooth="yes"/>
      <point x="559" y="157"/>
      <point x="560" y="169"/>
      <point x="563" y="180" type="curve"/>
      <point x="637" y="500" type="line"/>
      <point x="502" y="500" type="line"/>
      <point x="435" y="210" type="line" smooth="yes"/>
      <point x="422" y="152"/>
      <point x="370" y="71"/>
      <point x="302" y="71" type="curve" smooth="yes"/>
      <point x="258" y="71"/>
      <point x="236" y="106"/>
      <point x="236" y="148" type="curve" smooth="yes"/>
      <point x="236" y="158"/>
      <point x="237" y="169"/>
      <point x="240" y="180" type="curve"/>
      <point x="314" y="500" type="line"/>
      <point x="179" y="500" type="line"/>
    </contour>
    <contour>
      <point x="784" y="-140" type="line"/>
      <point x="888" y="-140" type="line"/>
      <point x="944" y="104" type="line"/>
      <point x="913" y="104"/>
      <point x="886" y="105"/>
      <point x="886" y="137" type="curve" smooth="yes"/>
      <point x="886" y="143"/>
      <point x="887" y="152"/>
      <point x="890" y="164" type="curve"/>
      <point x="766" y="164" type="line"/>
      <point x="742" y="42" type="line"/>
      <point x="752" y="8"/>
      <point x="773" y="0"/>
      <point x="813" y="0" type="curve"/>
    </contour>
  </outline>
</glyph>
<glyph name="uni044C" format="2">
  <advance width="592"/>
  <unicode hex="044C"/>
  <outline>
    <contour>
      <point x="98" y="145" type="curve" smooth="yes"/>
      <point x="98" y="48"/>
      <point x="168" y="-12"/>
      <point x="290" y="-12" type="curve" smooth="yes"/>
      <point x="444" y="-12"/>
      <point x="594" y="82"/>
      <point x="594" y="236" type="curve" smooth="yes"/>
      <point x="594" y="349"/>
      <point x="514" y="387"/>
      <point x="410" y="387" type="curve" smooth="yes"/>
      <point x="348" y="387"/>
      <point x="315" y="373"/>
      <point x="272" y="348" type="curve"/>
      <point x="307" y="500" type="line"/>
      <point x="174" y="500" type="line"/>
      <point x="105" y="199" type="line" smooth="yes"/>
      <point x="101" y="180"/>
      <point x="98" y="162"/>
    </contour>
    <contour>
      <point x="234" y="170" type="curve" smooth="yes"/>
      <point x="234" y="229"/>
      <point x="283" y="290"/>
      <point x="363" y="290" type="curve" smooth="yes"/>
      <point x="424" y="290"/>
      <point x="444" y="254"/>
      <point x="444" y="206" type="curve" smooth="yes"/>
      <point x="444" y="133"/>
      <point x="399" y="85"/>
      <point x="310" y="85" type="curve" smooth="yes"/>
      <point x="267" y="85"/>
      <point x="234" y="122"/>
    </contour>
  </outline>
</glyph>
<glyph name="uni044E" format="2">
  <advance width="797"/>
  <unicode hex="044E"/>
  <outline>
    <contour>
      <point x="73" y="0" type="line"/>
      <point x="208" y="0" type="line"/>
      <point x="257" y="214" type="line"/>
      <point x="310" y="214" type="line"/>
      <point x="307" y="196"/>
      <point x="306" y="179"/>
      <point x="306" y="165" type="curve" smooth="yes"/>
      <point x="306" y="46"/>
      <point x="378" y="-14"/>
      <point x="496" y="-14" type="curve" smooth="yes"/>
      <point x="695" y="-14"/>
      <point x="820" y="161"/>
      <point x="820" y="331" type="curve" smooth="yes"/>
      <point x="820" y="428"/>
      <point x="779" y="514"/>
      <point x="631" y="514" type="curve" smooth="yes"/>
      <point x="494" y="514"/>
      <point x="385" y="439"/>
      <point x="332" y="309" type="curve"/>
      <point x="279" y="309" type="line"/>
      <point x="320" y="500" type="line"/>
      <point x="185" y="500" type="line"/>
    </contour>
    <contour>
      <point x="451" y="184" type="curve" smooth="yes"/>
      <point x="451" y="272"/>
      <point x="507" y="419"/>
      <point x="600" y="419" type="curve" smooth="yes"/>
      <point x="652" y="419"/>
      <point x="675" y="371"/>
      <point x="675" y="316" type="curve" smooth="yes"/>
      <point x="675" y="230"/>
      <point x="619" y="85"/>
      <point x="526" y="85" type="curve" smooth="yes"/>
      <point x="474" y="85"/>
      <point x="451" y="128"/>
    </contour>
  </outline>
</glyph>
<glyph name="djecyr" format="2">
  <advance width="605"/>
  <unicode hex="0452"/>
  <outline>
    <component base="h"/>
    <component base="macron" xOffset="-10" yOffset="-70"/>
    <contour>
      <point x="187" y="-144" type="line"/>
      <point x="211" y="-178"/>
      <point x="270" y="-200"/>
      <point x="337" y="-200" type="curve" smooth="yes"/>
      <point x="443" y="-200"/>
      <point x="507" y="-146"/>
      <point x="526" y="-62" type="curve" smooth="yes"/>
      <point x="540" y="0" type="line"/>
      <point x="405" y="0" type="line"/>
      <point x="398" y="-30" type="line" smooth="yes"/>
      <point x="388" y="-73"/>
      <point x="369" y="-91"/>
      <point x="335" y="-91" type="curve" smooth="yes"/>
      <point x="310" y="-91"/>
      <point x="294" y="-81"/>
      <point x="284" y="-68" type="curve"/>
    </contour>
  </outline>
</glyph>
<glyph name="uni0454" format="2">
  <advance width="596"/>
  <unicode hex="0454"/>
  <outline>
    <contour>
      <point x="457" y="172" type="line"/>
      <point x="427" y="123"/>
      <point x="385" y="83"/>
      <point x="326" y="83" type="curve" smooth="yes"/>
      <point x="249" y="83"/>
      <point x="232" y="134"/>
      <point x="236" y="199" type="curve"/>
      <point x="442" y="199" type="line"/>
      <point x="464" y="294" type="line"/>
      <point x="257" y="294" type="line"/>
      <point x="284" y="359"/>
      <point x="327" y="413"/>
      <point x="403" y="413" type="curve" smooth="yes"/>
      <point x="450" y="413"/>
      <point x="477" y="383"/>
      <point x="490" y="338" type="curve"/>
      <point x="623" y="338" type="line"/>
      <point x="609" y="441"/>
      <point x="533" y="509"/>
      <point x="425" y="509" type="curve" smooth="yes"/>
      <point x="266" y="509"/>
      <point x="144" y="407"/>
      <point x="107" y="248" type="curve" smooth="yes"/>
      <point x="70" y="89"/>
      <point x="145" y="-13"/>
      <point x="304" y="-13" type="curve" smooth="yes"/>
      <point x="419" y="-13"/>
      <point x="526" y="61"/>
      <point x="586" y="172" type="curve"/>
    </contour>
  </outline>
</glyph>
<glyph name="uni04E9" format="2">
  <advance width="613"/>
  <unicode hex="04E9"/>
  <anchor x="447" y="580" name="top"/>
  <outline>
    <component base="o"/>
    <contour>
      <point x="570" y="303" type="line"/>
      <point x="551" y="213" type="line"/>
      <point x="171" y="213" type="line"/>
      <point x="190" y="303" type="line"/>
    </contour>
  </outline>
</glyph>
<glyph name="uni1FED" format="2">
  <advance width="362"/>
  <unicode hex="1FED"/>
  <anchor x="308" y="580" name="_top"/>
  <outline>
    <contour>
      <point x="370" y="700" type="line"/>
      <point x="321" y="880" type="line"/>
      <point x="191" y="880" type="line"/>
      <point x="300" y="700" type="line"/>
    </contour>
    <contour>
      <point x="475" y="580" type="line"/>
      <point x="503" y="700" type="line"/>
      <point x="393" y="700" type="line"/>
      <point x="365" y="580" type="line"/>
    </contour>
    <contour>
      <point x="245" y="580" type="line"/>
      <point x="273" y="700" type="line"/>
      <point x="163" y="700" type="line"/>
      <point x="135" y="580" type="line"/>
    </contour>
  </outline>
</glyph>
<glyph name="dieresisacute" format="2">
  <advance width="367"/>
  <unicode hex="1FEE"/>
  <anchor x="317" y="580" name="_top"/>
  <outline>
    <contour>
      <point x="471" y="861" type="line"/>
      <point x="341" y="861" type="line"/>
      <point x="300" y="700" type="line"/>
      <point x="370" y="700" type="line"/>
    </contour>
    <contour>
      <point x="485" y="580" type="line"/>
      <point x="513" y="700" type="line"/>
      <point x="403" y="700" type="line"/>
      <point x="375" y="580" type="line"/>
    </contour>
    <contour>
      <point x="245" y="580" type="line"/>
      <point x="273" y="700" type="line"/>
      <point x="163" y="700" type="line"/>
      <point x="135" y="580" type="line"/>
    </contour>
  </outline>
</glyph>
<glyph name="uni2010" format="2">
  <advance width="336"/>
  <unicode hex="2010"/>
  <outline>
    <contour>
      <point x="84" y="190" type="line"/>
      <point x="341" y="190" type="line"/>
      <point x="371" y="321" type="line"/>
      <point x="114" y="321" type="line"/>
    </contour>
  </outline>
</glyph>
<glyph name="endash" format="2">
  <advance width="500"/>
  <unicode hex="2013"/>
  <outline>
    <contour>
      <point x="546" y="200" type="line"/>
      <point x="572" y="311" type="line"/>
      <point x="72" y="311" type="line"/>
      <point x="46" y="200" type="line"/>
    </contour>
  </outline>
</glyph>
<glyph name="quoteleft" format="2">
  <advance width="275"/>
  <unicode hex="2018"/>
  <outline>
    <contour>
      <point x="413" y="722" type="line"/>
      <point x="318" y="722" type="line"/>
      <point x="140" y="470" type="line"/>
      <point x="276" y="470" type="line"/>
    </contour>
  </outline>
</glyph>
<glyph name="quotedblleft" format="2">
  <advance width="476"/>
  <unicode hex="201C"/>
  <outline>
    <contour>
      <point x="614" y="722" type="line"/>
      <point x="519" y="722" type="line"/>
      <point x="341" y="470" type="line"/>
      <point x="477" y="470" type="line"/>
    </contour>
    <contour>
      <point x="413" y="722" type="line"/>
      <point x="318" y="722" type="line"/>
      <point x="140" y="470" type="line"/>
      <point x="276" y="470" type="line"/>
    </contour>
  </outline>
</glyph>
<glyph name="quotedblright" format="2">
  <advance width="476"/>
  <unicode hex="201D"/>
  <outline>
    <contour>
      <point x="614" y="722" type="line"/>
      <point x="478" y="722" type="line"/>
      <point x="341" y="470" type="line"/>
      <point x="436" y="470" type="line"/>
    </contour>
    <contour>
      <point x="413" y="722" type="line"/>
      <point x="277" y="722" type="line"/>
      <point x="140" y="470" type="line"/>
      <point x="235" y="470" type="line"/>
    </contour>
  </outline>
</glyph>
<glyph name="quotedblbase" format="2">
  <advance width="479"/>
  <unicode hex="201E"/>
  <outline>
    <contour>
      <point x="476" y="123" type="line"/>
      <point x="340" y="123" type="line"/>
      <point x="203" y="-129" type="line"/>
      <point x="298" y="-129" type="line"/>
    </contour>
    <contour>
      <point x="275" y="123" type="line"/>
      <point x="139" y="123" type="line"/>
      <point x="2" y="-129" type="line"/>
      <point x="97" y="-129" type="line"/>
    </contour>
  </outline>
</glyph>
<glyph name="dagger" format="2">
  <advance width="545"/>
  <unicode hex="2020"/>
  <outline>
    <contour>
      <point x="598" y="400" type="line"/>
      <point x="621" y="500" type="line"/>
      <point x="448" y="500" type="line"/>
      <point x="500" y="722" type="line"/>
      <point x="380" y="722" type="line"/>
      <point x="328" y="500" type="line"/>
      <point x="155" y="500" type="line"/>
      <point x="132" y="400" type="line"/>
      <point x="305" y="400" type="line"/>
      <point x="176" y="-160" type="line"/>
      <point x="296" y="-160" type="line"/>
      <point x="425" y="400" type="line"/>
    </contour>
  </outline>
</glyph>
<glyph name="daggerdbl" format="2">
  <advance width="545"/>
  <unicode hex="2021"/>
  <outline>
    <contour>
      <point x="510" y="62" type="line"/>
      <point x="533" y="162" type="line"/>
      <point x="370" y="162" type="line"/>
      <point x="425" y="400" type="line"/>
      <point x="588" y="400" type="line"/>
      <point x="611" y="500" type="line"/>
      <point x="448" y="500" type="line"/>
      <point x="500" y="722" type="line"/>
      <point x="380" y="722" type="line"/>
      <point x="328" y="500" type="line"/>
      <point x="165" y="500" type="line"/>
      <point x="142" y="400" type="line"/>
      <point x="305" y="400" type="line"/>
      <point x="250" y="162" type="line"/>
      <point x="87" y="162" type="line"/>
      <point x="64" y="62" type="line"/>
      <point x="227" y="62" type="line"/>
      <point x="176" y="-160" type="line"/>
      <point x="296" y="-160" type="line"/>
      <point x="347" y="62" type="line"/>
    </contour>
  </outline>
</glyph>
<glyph name="guilsinglright" format="2">
  <advance width="369"/>
  <unicode hex="203A"/>
  <outline>
    <contour>
      <point x="363" y="252" type="line"/>
      <point x="298" y="447" type="line"/>
      <point x="168" y="447" type="line"/>
      <point x="213" y="252" type="line"/>
      <point x="78" y="57" type="line"/>
      <point x="208" y="57" type="line"/>
    </contour>
  </outline>
</glyph>
<glyph name="summation" format="2">
  <advance width="743"/>
  <unicode hex="2211"/>
  <outline>
    <contour>
      <point x="-8" y="-100" type="line"/>
      <point x="3" y="-100"/>
      <point x="42" y="-97"/>
      <point x="53" y="-97" type="curve" smooth="yes"/>
      <point x="571" y="-97" type="line" smooth="yes"/>
      <point x="582" y="-97"/>
      <point x="641" y="-107"/>
      <point x="648" y="-109" type="curve"/>
      <point x="672" y="-44"/>
      <point x="705" y="34"/>
      <point x="747" y="125" type="curve"/>
      <point x="723" y="125" type="line"/>
      <point x="676" y="51"/>
      <point x="648" y="6"/>
      <point x="554" y="6" type="curve" smooth="yes"/>
      <point x="234" y="6" type="line"/>
      <point x="618" y="356" type="line"/>
      <point x="423" y="726" type="line"/>
      <point x="638" y="726" type="line" smooth="yes"/>
      <point x="744" y="726"/>
      <point x="765" y="706"/>
      <point x="776" y="607" type="curve"/>
      <point x="797" y="607" type="line"/>
      <point x="822" y="773" type="line"/>
      <point x="303" y="773" type="line" smooth="yes"/>
      <point x="288" y="773"/>
      <point x="211" y="780"/>
      <point x="197" y="780" type="curve"/>
      <point x="447" y="311" type="line"/>
    </contour>
  </outline>
</glyph>
<glyph name="minus" format="2">
  <advance width="668"/>
  <unicode hex="2212"/>
  <outline>
    <contour>
      <point x="681" y="269" type="line"/>
      <point x="705" y="380" type="line"/>
      <point x="139" y="380" type="line"/>
      <point x="115" y="269" type="line"/>
    </contour>
  </outline>
</glyph>
<glyph name="radical" format="2">
  <advance width="574"/>
  <unicode hex="221A"/>
  <outline>
    <contour>
      <point x="730" y="670" type="line"/>
      <point x="737" y="700" type="line"/>
      <point x="657" y="700" type="line"/>
      <point x="356" y="103" type="line"/>
      <point x="249" y="484" type="line"/>
      <point x="118" y="425" type="line"/>
      <point x="127" y="395" type="line"/>
      <point x="196" y="426" type="line"/>
      <point x="314" y="0" type="line"/>
      <point x="344" y="0" type="line"/>
      <point x="680" y="670" type="line"/>
    </contour>
  </outline>
</glyph>
<glyph name="lozenge" format="2">
  <advance width="536"/>
  <unicode hex="25CA"/>
  <outline>
    <contour>
      <point x="592" y="392" type="line"/>
      <point x="479" y="776" type="line"/>
      <point x="416" y="776" type="line"/>
      <point x="126" y="392" type="line"/>
      <point x="237" y="0" type="line"/>
      <point x="300" y="0" type="line"/>
    </contour>
    <contour>
      <point x="461" y="392" type="line"/>
      <point x="314" y="192" type="line"/>
      <point x="257" y="392" type="line"/>
      <point x="404" y="583" type="line"/>
    </contour>
  </outline>
</glyph>
<glyph name="uni0414.loclBGR" format="2">
  <advance width="711"/>
  <outline>
    <contour>
      <point x="241" y="115" type="line"/>
      <point x="319" y="255"/>
      <point x="392" y="385"/>
      <point x="469" y="520" type="curve"/>
      <point x="483" y="384"/>
      <point x="496" y="241"/>
      <point x="510" y="115" type="curve"/>
    </contour>
    <contour>
      <point x="651" y="-145" type="line"/>
      <point x="710" y="115" type="line"/>
      <point x="653" y="115" type="line"/>
      <point x="580" y="722" type="line"/>
      <point x="449" y="722" type="line"/>
      <point x="335" y="527"/>
      <point x="210" y="311"/>
      <point x="95" y="115" type="curve"/>
      <point x="36" y="115" type="line"/>
      <point x="-24" y="-145" type="line"/>
      <point x="110" y="-145" type="line"/>
      <point x="143" y="0" type="line"/>
      <point x="550" y="0" type="line"/>
      <point x="517" y="-145" type="line"/>
    </contour>
  </outline>
</glyph>
<glyph name="uni041B.loclBGR" format="2">
  <advance width="667"/>
  <outline>
    <contour>
      <point x="10" y="0" type="line"/>
      <point x="168" y="0" type="line"/>
      <point x="453" y="520" type="line"/>
      <point x="499" y="0" type="line"/>
      <point x="657" y="0" type="line"/>
      <point x="576" y="722" type="line"/>
      <point x="425" y="722" type="line"/>
    </contour>
  </outline>
</glyph>
<glyph name="uni0433.loclSRB" format="2">
  <advance width="469"/>
  <anchor x="352" y="580" name="top"/>
  <outline>
    <component base="macroncomb" xOffset="460" yOffset="-40"/>
    <contour>
      <point x="38" y="131" type="curve" smooth="yes"/>
      <point x="38" y="41"/>
      <point x="114" y="-11"/>
      <point x="210" y="-11" type="curve" smooth="yes"/>
      <point x="331" y="-11"/>
      <point x="429" y="44"/>
      <point x="459" y="172" type="curve"/>
      <point x="336" y="172" type="line"/>
      <point x="322" y="115"/>
      <point x="287" y="86"/>
      <point x="231" y="86" type="curve" smooth="yes"/>
      <point x="196" y="86"/>
      <point x="166" y="97"/>
      <point x="166" y="134" type="curve" smooth="yes"/>
      <point x="166" y="161"/>
      <point x="183" y="190"/>
      <point x="226" y="200" type="curve" smooth="yes"/>
      <point x="363" y="231" type="line" smooth="yes"/>
      <point x="444" y="249"/>
      <point x="495" y="318"/>
      <point x="495" y="393" type="curve" smooth="yes"/>
      <point x="495" y="479"/>
      <point x="427" y="513"/>
      <point x="336" y="513" type="curve" smooth="yes"/>
      <point x="213" y="513"/>
      <point x="123" y="451"/>
      <point x="96" y="339" type="curve"/>
      <point x="219" y="339" type="line"/>
      <point x="231" y="390"/>
      <point x="261" y="416"/>
      <point x="311" y="416" type="curve" smooth="yes"/>
      <point x="340" y="416"/>
      <point x="367" y="408"/>
      <point x="367" y="372" type="curve" smooth="yes"/>
      <point x="367" y="350"/>
      <point x="357" y="328"/>
      <point x="315" y="318" type="curve" smooth="yes"/>
      <point x="189" y="288" type="line" smooth="yes"/>
      <point x="101" y="267"/>
      <point x="38" y="213"/>
    </contour>
  </outline>
</glyph>
<glyph name="uni0436.loclBGR" format="2">
  <advance width="770"/>
  <outline>
    <contour>
      <point x="488" y="706" type="line"/>
      <point x="403" y="337" type="line"/>
      <point x="290" y="500" type="line"/>
      <point x="135" y="500" type="line"/>
      <point x="288" y="279" type="line"/>
      <point x="10" y="0" type="line"/>
      <point x="168" y="0" type="line"/>
      <point x="234" y="68"/>
      <point x="305" y="140"/>
      <point x="373" y="209" type="curve"/>
      <point x="325" y="0" type="line"/>
      <point x="445" y="0" type="line"/>
      <point x="493" y="210" type="line"/>
      <point x="603" y="0" type="line"/>
      <point x="760" y="0" type="line"/>
      <point x="610" y="278" type="line"/>
      <point x="865" y="500" type="line"/>
      <point x="709" y="500" type="line"/>
      <point x="523" y="336" type="line"/>
      <point x="608" y="706" type="line"/>
    </contour>
  </outline>
</glyph>
<glyph name="uni043B.loclBGR" format="2">
  <advance width="529"/>
  <outline>
    <contour>
      <point x="20" y="0" type="line"/>
      <point x="159" y="0" type="line"/>
      <point x="340" y="318" type="line"/>
      <point x="375" y="0" type="line"/>
      <point x="523" y="0" type="line"/>
      <point x="451" y="500" type="line"/>
      <point x="321" y="500" type="line"/>
    </contour>
  </outline>
</glyph>
